G04*
G04 #@! TF.GenerationSoftware,Altium Limited,Altium Designer,25.2.1 (25)*
G04*
G04 Layer_Physical_Order=1*
G04 Layer_Color=255*
%FSLAX44Y44*%
%MOMM*%
G71*
G04*
G04 #@! TF.SameCoordinates,039E5A32-83B9-41F8-A539-16E892C8F481*
G04*
G04*
G04 #@! TF.FilePolarity,Positive*
G04*
G01*
G75*
%ADD12R,2.0000X4.0000*%
%ADD17C,2.0000*%
%ADD18C,0.5000*%
G04:AMPARAMS|DCode=19|XSize=2.25mm|YSize=2.25mm|CornerRadius=0.5625mm|HoleSize=0mm|Usage=FLASHONLY|Rotation=0.000|XOffset=0mm|YOffset=0mm|HoleType=Round|Shape=RoundedRectangle|*
%AMROUNDEDRECTD19*
21,1,2.2500,1.1250,0,0,0.0*
21,1,1.1250,2.2500,0,0,0.0*
1,1,1.1250,0.5625,-0.5625*
1,1,1.1250,-0.5625,-0.5625*
1,1,1.1250,-0.5625,0.5625*
1,1,1.1250,0.5625,0.5625*
%
%ADD19ROUNDEDRECTD19*%
%ADD20C,2.2500*%
%ADD21C,0.7500*%
D12*
X88748Y262500D02*
D03*
X88498Y432500D02*
D03*
X88249Y602500D02*
D03*
D17*
X72500Y458118D02*
X88590Y442584D01*
X72858Y407360D02*
X87998Y422500D01*
X72500Y407360D02*
X72858D01*
X72500Y407002D02*
Y407360D01*
X51980Y386482D02*
X72500Y407002D01*
X72380Y458118D02*
X72500D01*
X46271Y484227D02*
X72380Y458118D01*
X46271Y484227D02*
Y684984D01*
X97900Y54855D02*
Y135452D01*
X51980Y181372D02*
X97900Y135452D01*
Y736613D02*
Y809760D01*
X46271Y684984D02*
X97900Y736613D01*
X51980Y181372D02*
Y386482D01*
D18*
X71561Y615554D02*
X79519D01*
X88249Y602500D01*
X71561Y588701D02*
X79519D01*
X88249Y602500D01*
X72500Y277691D02*
X88748D01*
Y262500D02*
Y277691D01*
X72500Y247774D02*
X88748D01*
Y262500D01*
D19*
X47100Y54855D02*
D03*
X97900Y809760D02*
D03*
D20*
Y54855D02*
D03*
X47100Y809760D02*
D03*
D21*
X72500Y407360D02*
D03*
Y458118D02*
D03*
X71561Y588701D02*
D03*
Y615554D02*
D03*
X72500Y247774D02*
D03*
Y277691D02*
D03*
M02*
