G04*
G04 #@! TF.GenerationSoftware,Altium Limited,Altium Designer,25.2.1 (25)*
G04*
G04 Layer_Physical_Order=2*
G04 Layer_Color=16711680*
%FSLAX44Y44*%
%MOMM*%
G71*
G04*
G04 #@! TF.SameCoordinates,039E5A32-83B9-41F8-A539-16E892C8F481*
G04*
G04*
G04 #@! TF.FilePolarity,Positive*
G04*
G01*
G75*
%ADD12R,2.0000X4.0000*%
%ADD18C,0.5000*%
G04:AMPARAMS|DCode=19|XSize=2.25mm|YSize=2.25mm|CornerRadius=0.5625mm|HoleSize=0mm|Usage=FLASHONLY|Rotation=0.000|XOffset=0mm|YOffset=0mm|HoleType=Round|Shape=RoundedRectangle|*
%AMROUNDEDRECTD19*
21,1,2.2500,1.1250,0,0,0.0*
21,1,1.1250,2.2500,0,0,0.0*
1,1,1.1250,0.5625,-0.5625*
1,1,1.1250,-0.5625,-0.5625*
1,1,1.1250,-0.5625,0.5625*
1,1,1.1250,0.5625,0.5625*
%
%ADD19ROUNDEDRECTD19*%
%ADD20C,2.2500*%
%ADD21C,0.7500*%
%ADD22C,1.0000*%
G36*
X141941Y3059D02*
X3059D01*
Y861941D01*
X141941D01*
Y3059D01*
D02*
G37*
%LPC*%
G36*
X48916Y823550D02*
X48370D01*
Y811030D01*
X60890D01*
Y811576D01*
X59950Y815083D01*
X58135Y818227D01*
X55567Y820795D01*
X52423Y822610D01*
X48916Y823550D01*
D02*
G37*
G36*
X45830D02*
X45285D01*
X41777Y822610D01*
X38633Y820795D01*
X36065Y818227D01*
X34250Y815083D01*
X33310Y811576D01*
Y811030D01*
X45830D01*
Y823550D01*
D02*
G37*
G36*
X60890Y808490D02*
X48370D01*
Y795970D01*
X48916D01*
X52423Y796910D01*
X55567Y798726D01*
X58135Y801293D01*
X59950Y804437D01*
X60890Y807945D01*
Y808490D01*
D02*
G37*
G36*
X45830D02*
X33310D01*
Y807945D01*
X34250Y804437D01*
X36065Y801293D01*
X38633Y798726D01*
X41777Y796910D01*
X45285Y795970D01*
X45830D01*
Y808490D01*
D02*
G37*
G36*
X103525Y823621D02*
X92275D01*
X90143Y823340D01*
X88157Y822517D01*
X86452Y821208D01*
X85143Y819503D01*
X84320Y817517D01*
X84040Y815385D01*
Y804135D01*
X84320Y802004D01*
X85143Y800017D01*
X86452Y798312D01*
X88157Y797003D01*
X90143Y796180D01*
X92275Y795900D01*
X103525D01*
X105656Y796180D01*
X107643Y797003D01*
X109348Y798312D01*
X110657Y800017D01*
X111480Y802004D01*
X111761Y804135D01*
Y815385D01*
X111480Y817517D01*
X110657Y819503D01*
X109348Y821208D01*
X107643Y822517D01*
X105656Y823340D01*
X103525Y823621D01*
D02*
G37*
G36*
X86979Y625040D02*
X75709D01*
Y623393D01*
X73169Y621696D01*
X72831Y621836D01*
Y615554D01*
Y609272D01*
X73169Y609412D01*
X75709Y607715D01*
Y603770D01*
X86979D01*
Y625040D01*
D02*
G37*
G36*
X70291Y621836D02*
X67998Y620886D01*
X66229Y619117D01*
X65279Y616824D01*
X70291D01*
Y621836D01*
D02*
G37*
G36*
Y614284D02*
X65279D01*
X66229Y611991D01*
X67998Y610222D01*
X70291Y609272D01*
Y614284D01*
D02*
G37*
G36*
X86979Y601230D02*
X75709D01*
Y596540D01*
X73169Y594843D01*
X72831Y594983D01*
Y588701D01*
Y582419D01*
X73169Y582559D01*
X75709Y580862D01*
Y579960D01*
X86979D01*
Y601230D01*
D02*
G37*
G36*
X70291Y594983D02*
X67998Y594034D01*
X66229Y592264D01*
X65279Y589971D01*
X70291D01*
Y594983D01*
D02*
G37*
G36*
Y587431D02*
X65279D01*
X66229Y585138D01*
X67998Y583369D01*
X70291Y582419D01*
Y587431D01*
D02*
G37*
G36*
X112185Y644246D02*
X109815D01*
X109483Y644180D01*
X109145Y644157D01*
X106856Y643544D01*
X106552Y643394D01*
X106231Y643286D01*
X104179Y642101D01*
X103924Y641877D01*
X103643Y641689D01*
X101967Y640013D01*
X101779Y639732D01*
X101555Y639477D01*
X100371Y637425D01*
X100262Y637104D01*
X100112Y636800D01*
X99499Y634511D01*
X99476Y634173D01*
X99410Y633841D01*
Y625040D01*
X89519D01*
Y602500D01*
Y579960D01*
X99410D01*
Y455040D01*
X86214D01*
X78273Y462981D01*
X77878Y463496D01*
X76302Y464704D01*
X74468Y465464D01*
X72500Y465723D01*
X70532Y465464D01*
X68698Y464704D01*
X67122Y463496D01*
X65914Y461921D01*
X65154Y460087D01*
X64895Y458118D01*
Y457998D01*
X65154Y456030D01*
X65914Y454196D01*
X67122Y452621D01*
X75958Y443785D01*
Y421215D01*
X68661Y413918D01*
X67122Y412737D01*
X65914Y411162D01*
X65154Y409328D01*
X64895Y407360D01*
X65154Y405391D01*
X65914Y403557D01*
X67122Y401982D01*
X68698Y400773D01*
X70532Y400014D01*
X72500Y399754D01*
X72858D01*
X74826Y400014D01*
X76660Y400773D01*
X78236Y401982D01*
X86214Y409960D01*
X99410D01*
Y285040D01*
X90017D01*
Y262500D01*
Y239960D01*
X99410D01*
Y231411D01*
X99476Y231078D01*
X99499Y230740D01*
X100112Y228451D01*
X100262Y228148D01*
X100371Y227827D01*
X101555Y225774D01*
X101779Y225520D01*
X101967Y225238D01*
X103643Y223563D01*
X103924Y223374D01*
X104179Y223151D01*
X106231Y221966D01*
X106552Y221857D01*
X106856Y221707D01*
X109145Y221094D01*
X109483Y221072D01*
X109815Y221006D01*
X112185D01*
X112517Y221072D01*
X112855Y221094D01*
X115144Y221707D01*
X115448Y221857D01*
X115769Y221966D01*
X117821Y223151D01*
X118076Y223374D01*
X118357Y223563D01*
X120033Y225238D01*
X120221Y225520D01*
X120445Y225774D01*
X121629Y227827D01*
X121738Y228148D01*
X121888Y228451D01*
X122501Y230740D01*
X122524Y231078D01*
X122590Y231411D01*
Y232596D01*
X122590Y232596D01*
Y632656D01*
X122590Y632656D01*
Y633841D01*
X122524Y634173D01*
X122501Y634511D01*
X121888Y636800D01*
X121738Y637104D01*
X121629Y637425D01*
X120445Y639477D01*
X120221Y639732D01*
X120033Y640013D01*
X118357Y641689D01*
X118076Y641877D01*
X117821Y642101D01*
X115769Y643286D01*
X115448Y643394D01*
X115144Y643544D01*
X112855Y644157D01*
X112517Y644180D01*
X112185Y644246D01*
D02*
G37*
G36*
X71230Y283973D02*
X68937Y283023D01*
X67168Y281254D01*
X66218Y278961D01*
X71230D01*
Y283973D01*
D02*
G37*
G36*
Y276421D02*
X66218D01*
X67168Y274128D01*
X68937Y272358D01*
X71230Y271409D01*
Y276421D01*
D02*
G37*
G36*
X76208Y285040D02*
X73770Y283989D01*
Y277691D01*
Y271388D01*
X76207Y269669D01*
Y263770D01*
X87478D01*
Y285040D01*
X76208D01*
Y285040D01*
D02*
G37*
G36*
X71230Y254056D02*
X68937Y253106D01*
X67168Y251337D01*
X66218Y249044D01*
X71230D01*
Y254056D01*
D02*
G37*
G36*
Y246504D02*
X66218D01*
X67168Y244211D01*
X68937Y242442D01*
X71230Y241492D01*
Y246504D01*
D02*
G37*
G36*
X87478Y261230D02*
X76207D01*
Y255796D01*
X73770Y254077D01*
Y247774D01*
Y241472D01*
X76207Y239960D01*
Y239960D01*
X87478D01*
Y261230D01*
D02*
G37*
G36*
X52725Y68715D02*
X48370D01*
Y56125D01*
X60960D01*
Y60480D01*
X60680Y62611D01*
X59857Y64597D01*
X58548Y66303D01*
X56843Y67612D01*
X54857Y68435D01*
X52725Y68715D01*
D02*
G37*
G36*
X45830D02*
X41475D01*
X39344Y68435D01*
X37357Y67612D01*
X35652Y66303D01*
X34343Y64597D01*
X33520Y62611D01*
X33240Y60480D01*
Y56125D01*
X45830D01*
Y68715D01*
D02*
G37*
G36*
X99715Y68645D02*
X96084D01*
X92577Y67705D01*
X89433Y65889D01*
X86865Y63322D01*
X85050Y60177D01*
X84110Y56670D01*
Y53039D01*
X85050Y49532D01*
X86865Y46387D01*
X89433Y43820D01*
X92577Y42004D01*
X96084Y41065D01*
X99715D01*
X103223Y42004D01*
X106367Y43820D01*
X108935Y46387D01*
X110750Y49532D01*
X111690Y53039D01*
Y56670D01*
X110750Y60177D01*
X108935Y63322D01*
X106367Y65889D01*
X103223Y67705D01*
X99715Y68645D01*
D02*
G37*
G36*
X60960Y53585D02*
X48370D01*
Y40994D01*
X52725D01*
X54857Y41275D01*
X56843Y42098D01*
X58548Y43406D01*
X59857Y45112D01*
X60680Y47098D01*
X60960Y49230D01*
Y53585D01*
D02*
G37*
G36*
X45830D02*
X33240D01*
Y49230D01*
X33520Y47098D01*
X34343Y45112D01*
X35652Y43406D01*
X37357Y42098D01*
X39344Y41275D01*
X41475Y40994D01*
X45830D01*
Y53585D01*
D02*
G37*
%LPD*%
D12*
X88748Y262500D02*
D03*
X88498Y432500D02*
D03*
X88249Y602500D02*
D03*
D18*
X72831Y247774D02*
X80289D01*
X87749Y597431D02*
Y606824D01*
X71561Y588701D02*
X79019D01*
X87749Y597431D01*
X79019Y615554D02*
X87749Y606824D01*
X71561Y615554D02*
X79019D01*
X79517Y277691D02*
X88248Y268961D01*
X72500Y277691D02*
X79517D01*
D19*
X47100Y54855D02*
D03*
X97900Y809760D02*
D03*
D20*
Y54855D02*
D03*
X47100Y809760D02*
D03*
D21*
X72500Y407360D02*
D03*
Y458118D02*
D03*
X71561Y588701D02*
D03*
Y615554D02*
D03*
X72500Y247774D02*
D03*
Y277691D02*
D03*
D22*
X87998Y422500D02*
Y442500D01*
X72500Y457998D02*
Y458118D01*
Y457998D02*
X87998Y442500D01*
X72500Y407360D02*
X72858D01*
X87998Y422500D01*
M02*
