M48
;Layer_Color=9474304
;FILE_FORMAT=4:4
METRIC,LZ
;TYPE=PLATED
T01F00S00C0.3000
T03F00S00C0.9000
T04F00S00C1.0000
;TYPE=NON_PLATED
T05F00S00C0.6500
%
T01
X0002305Y0008636
Y001143
Y001651
Y0019304
Y0024511
Y0027305
X001Y0027432
X00152487Y0027051
X00152269Y00313195
X0014605Y0036068
X00158145Y0038735
X00117585Y00372156
X00116612Y0018625
X00140994
X0017018Y0019431
X0018415Y0020955
X00230057Y00183619
X00244388
X00258719
X0027305
Y00167052
X00258719
Y00150484
X0027305
Y00133917
X00258719
X00244388
X00230057
X00195689Y00123096
X00144663Y00068092
X0011557Y0006717
Y0001284
X00144663
X0032512Y0008528
X0035306
X00403901Y00085253
X00431841
X0045557Y0006717
X00483104Y00085307
X00511044
X00484663Y0001284
X0045557
X0050395Y0018082
X0053213Y0028205
Y0038216
X0055626
X0050395Y0038094
X00178265Y00425937
X00135181
X00132723Y0047607
X00119019Y00473861
X00152965Y00472611
X00181258Y00475713
X00195419Y0047429
X00164632Y00499089
T03
X0021933Y00508476
X0024473
X00268283
X00293683
X00317243
X00342643
X00366325Y00508427
X00391725
T04
X0017018Y00080887
X00249393
X0026924Y0010668
X00241693Y00209607
X00203835Y00271826
X0022434Y00309809
Y0037061
X002794Y0027453
X0041275Y0028188
Y0030988
X0044075
Y0028188
X00433423Y00164409
X0028067Y0039751
T05
X00128319Y00497027
X00186119
M30
