G04*
G04 #@! TF.GenerationSoftware,Altium Limited,Altium Designer,25.2.1 (25)*
G04*
G04 Layer_Physical_Order=2*
G04 Layer_Color=16711680*
%FSLAX44Y44*%
%MOMM*%
G71*
G04*
G04 #@! TF.SameCoordinates,0CB7DE92-67F7-45F5-A009-4FBA8635F986*
G04*
G04*
G04 #@! TF.FilePolarity,Positive*
G04*
G01*
G75*
%ADD50C,1.4000*%
%ADD53C,0.7500*%
%ADD55C,1.5000*%
%ADD57C,0.3000*%
%ADD60C,0.7500*%
%ADD63C,0.5000*%
%ADD67C,1.3000*%
%ADD68O,1.0000X1.8000*%
%ADD69O,1.0000X2.1000*%
%ADD70C,0.6500*%
%ADD71R,1.4000X1.4000*%
%ADD72R,6.8801X6.6040*%
G36*
X401941Y512571D02*
X400966Y512205D01*
X399401Y512132D01*
X398527Y513647D01*
X396944Y515229D01*
X395006Y516348D01*
X392844Y516927D01*
X390606D01*
X388444Y516348D01*
X386506Y515229D01*
X384923Y513647D01*
X383804Y511708D01*
X383225Y509547D01*
Y507308D01*
X383804Y505147D01*
X384923Y503208D01*
X386506Y501626D01*
X388444Y500507D01*
X390606Y499927D01*
X392844D01*
X395006Y500507D01*
X396944Y501626D01*
X398527Y503208D01*
X399401Y504723D01*
X400966Y504650D01*
X401941Y504283D01*
X401941Y410000D01*
X401956Y409925D01*
X401945Y409850D01*
X401993Y408870D01*
X402048Y408650D01*
Y408423D01*
X402431Y406500D01*
X402546Y406222D01*
X402605Y405927D01*
X403355Y404115D01*
X403522Y403865D01*
X403638Y403587D01*
X404727Y401957D01*
X404940Y401744D01*
X405107Y401493D01*
X406493Y400107D01*
X406744Y399940D01*
X406957Y399727D01*
X408587Y398638D01*
X408865Y398522D01*
X409116Y398355D01*
X410927Y397605D01*
X411222Y397546D01*
X411500Y397431D01*
X413423Y397048D01*
X413650D01*
X413870Y396993D01*
X414850Y396945D01*
X414925Y396956D01*
X415000Y396941D01*
X596941D01*
Y53059D01*
X510000D01*
X509925Y53044D01*
X509850Y53055D01*
X508870Y53007D01*
X508650Y52952D01*
X508423D01*
X506500Y52569D01*
X506222Y52454D01*
X505927Y52395D01*
X504115Y51645D01*
X503865Y51478D01*
X503587Y51362D01*
X501957Y50273D01*
X501744Y50060D01*
X501493Y49893D01*
X500107Y48507D01*
X499940Y48256D01*
X499727Y48043D01*
X498638Y46413D01*
X498522Y46135D01*
X498355Y45884D01*
X497605Y44073D01*
X497546Y43778D01*
X497431Y43500D01*
X497048Y41577D01*
Y41350D01*
X496993Y41130D01*
X496945Y40150D01*
X496956Y40075D01*
X496941Y40000D01*
Y6597D01*
X490907D01*
X489855Y9137D01*
X489995Y9277D01*
X490945Y11570D01*
X478381D01*
X479331Y9277D01*
X479471Y9137D01*
X478419Y6597D01*
X461814D01*
X460762Y9137D01*
X460902Y9277D01*
X461852Y11570D01*
X449288D01*
X450238Y9277D01*
X450378Y9137D01*
X449326Y6597D01*
X150907D01*
X149855Y9137D01*
X149995Y9277D01*
X150945Y11570D01*
X138381D01*
X139331Y9277D01*
X139471Y9137D01*
X138419Y6597D01*
X121814D01*
X120762Y9137D01*
X120902Y9277D01*
X121852Y11570D01*
X109288D01*
X110238Y9277D01*
X110378Y9137D01*
X109326Y6597D01*
X103059D01*
X103059Y40000D01*
X103044Y40075D01*
X103055Y40150D01*
X103007Y41130D01*
X102952Y41350D01*
Y41577D01*
X102569Y43499D01*
X102454Y43778D01*
X102395Y44073D01*
X101645Y45884D01*
X101478Y46135D01*
X101362Y46413D01*
X100273Y48043D01*
X100060Y48256D01*
X99893Y48507D01*
X98507Y49893D01*
X98256Y50060D01*
X98043Y50273D01*
X96413Y51362D01*
X96135Y51478D01*
X95884Y51645D01*
X94073Y52395D01*
X93778Y52454D01*
X93499Y52569D01*
X91577Y52952D01*
X91350D01*
X91130Y53007D01*
X90150Y53055D01*
X90075Y53044D01*
X90000Y53059D01*
X3059D01*
Y396941D01*
X90000Y396941D01*
X90075Y396956D01*
X90150Y396945D01*
X91130Y396993D01*
X91350Y397048D01*
X91577D01*
X93499Y397431D01*
X93778Y397546D01*
X94073Y397605D01*
X95884Y398355D01*
X96135Y398522D01*
X96413Y398638D01*
X98043Y399727D01*
X98256Y399940D01*
X98507Y400107D01*
X99893Y401493D01*
X100060Y401744D01*
X100273Y401957D01*
X101362Y403587D01*
X101478Y403865D01*
X101645Y404115D01*
X102395Y405927D01*
X102454Y406222D01*
X102569Y406500D01*
X102952Y408423D01*
Y408650D01*
X103007Y408870D01*
X103055Y409850D01*
X103044Y409925D01*
X103059Y410000D01*
X103059Y546941D01*
X109683D01*
X110217Y544413D01*
X108642Y543204D01*
X107433Y541629D01*
X106673Y539795D01*
X106414Y537827D01*
Y535097D01*
X114019D01*
X121624D01*
Y537827D01*
X121365Y539795D01*
X120605Y541629D01*
X119397Y543204D01*
X117822Y544413D01*
X118355Y546941D01*
X196083D01*
X196617Y544413D01*
X195042Y543204D01*
X193833Y541629D01*
X193073Y539795D01*
X192814Y537827D01*
Y535097D01*
X200419D01*
X208024D01*
Y537827D01*
X207765Y539795D01*
X207005Y541629D01*
X205797Y543204D01*
X204222Y544413D01*
X204755Y546941D01*
X401941D01*
Y512571D01*
D02*
G37*
%LPC*%
G36*
X199149Y532557D02*
X192814D01*
Y529827D01*
X193073Y527859D01*
X193833Y526024D01*
X195042Y524449D01*
X196617Y523241D01*
X198451Y522481D01*
X199149Y522389D01*
Y532557D01*
D02*
G37*
G36*
X112749D02*
X106414D01*
Y529827D01*
X106673Y527859D01*
X107433Y526024D01*
X108642Y524449D01*
X110217Y523241D01*
X112051Y522481D01*
X112749Y522389D01*
Y532557D01*
D02*
G37*
G36*
X208024D02*
X201689D01*
Y522389D01*
X202388Y522481D01*
X204222Y523241D01*
X205797Y524449D01*
X207005Y526024D01*
X207765Y527859D01*
X208024Y529827D01*
Y532557D01*
D02*
G37*
G36*
X121624D02*
X115289D01*
Y522389D01*
X115988Y522481D01*
X117822Y523241D01*
X119397Y524449D01*
X120605Y526024D01*
X121365Y527859D01*
X121624Y529827D01*
Y532557D01*
D02*
G37*
G36*
X277823Y518016D02*
X269553D01*
Y509746D01*
X277823D01*
Y518016D01*
D02*
G37*
G36*
X326783D02*
X318513D01*
Y509746D01*
X326783D01*
Y518016D01*
D02*
G37*
G36*
X228870D02*
X220600D01*
Y509746D01*
X228870D01*
Y518016D01*
D02*
G37*
G36*
X267013D02*
X258743D01*
Y509746D01*
X267013D01*
Y518016D01*
D02*
G37*
G36*
X218060D02*
X209790D01*
Y509746D01*
X218060D01*
Y518016D01*
D02*
G37*
G36*
X315973D02*
X307703D01*
Y509746D01*
X315973D01*
Y518016D01*
D02*
G37*
G36*
X375865Y517967D02*
X367595D01*
Y509697D01*
X375865D01*
Y517967D01*
D02*
G37*
G36*
X365055D02*
X356785D01*
Y509697D01*
X365055D01*
Y517967D01*
D02*
G37*
G36*
X218060Y507206D02*
X209790D01*
Y503531D01*
X209326Y501153D01*
X209074Y501103D01*
X206760Y501649D01*
X205797Y502904D01*
X204222Y504113D01*
X202388Y504873D01*
X201689Y504965D01*
Y493297D01*
X208024D01*
Y497128D01*
X208081Y497186D01*
X209996Y498696D01*
X210401Y498936D01*
X218060D01*
Y507206D01*
D02*
G37*
G36*
X343762Y516976D02*
X341524D01*
X339362Y516397D01*
X337424Y515278D01*
X335841Y513695D01*
X334722Y511757D01*
X334143Y509595D01*
Y507357D01*
X334722Y505196D01*
X335841Y503257D01*
X337424Y501675D01*
X339362Y500556D01*
X341524Y499976D01*
X343762D01*
X345924Y500556D01*
X347862Y501675D01*
X349444Y503257D01*
X350563Y505196D01*
X351143Y507357D01*
Y509595D01*
X350563Y511757D01*
X349444Y513695D01*
X347862Y515278D01*
X345924Y516397D01*
X343762Y516976D01*
D02*
G37*
G36*
X294802D02*
X292564D01*
X290402Y516397D01*
X288464Y515278D01*
X286881Y513695D01*
X285762Y511757D01*
X285183Y509595D01*
Y507357D01*
X285762Y505196D01*
X286881Y503257D01*
X288464Y501675D01*
X290402Y500556D01*
X292564Y499976D01*
X294802D01*
X296964Y500556D01*
X298902Y501675D01*
X300485Y503257D01*
X301604Y505196D01*
X302183Y507357D01*
Y509595D01*
X301604Y511757D01*
X300485Y513695D01*
X298902Y515278D01*
X296964Y516397D01*
X294802Y516976D01*
D02*
G37*
G36*
X245849D02*
X243610D01*
X241449Y516397D01*
X239510Y515278D01*
X237928Y513695D01*
X236809Y511757D01*
X236230Y509595D01*
Y507357D01*
X236809Y505196D01*
X237928Y503257D01*
X239510Y501675D01*
X241449Y500556D01*
X243610Y499976D01*
X245849D01*
X248011Y500556D01*
X249949Y501675D01*
X251531Y503257D01*
X252650Y505196D01*
X253230Y507357D01*
Y509595D01*
X252650Y511757D01*
X251531Y513695D01*
X249949Y515278D01*
X248011Y516397D01*
X245849Y516976D01*
D02*
G37*
G36*
X199149Y504965D02*
X198451Y504873D01*
X196617Y504113D01*
X195042Y502904D01*
X193833Y501329D01*
X193073Y499495D01*
X193053Y499338D01*
X190445Y498995D01*
X190146Y499717D01*
X188810Y501054D01*
X187064Y501777D01*
X185174D01*
X183428Y501054D01*
X182092Y499717D01*
X181369Y497972D01*
Y496082D01*
X182092Y494336D01*
X183428Y493000D01*
X185174Y492277D01*
X187064D01*
X188810Y493000D01*
X190146Y494336D01*
X190274Y494645D01*
X192814Y494140D01*
Y493297D01*
X199149D01*
Y504965D01*
D02*
G37*
G36*
X326783Y507206D02*
X318513D01*
Y498936D01*
X326783D01*
Y507206D01*
D02*
G37*
G36*
X315973D02*
X307703D01*
Y498936D01*
X315973D01*
Y507206D01*
D02*
G37*
G36*
X277823D02*
X269553D01*
Y498936D01*
X277823D01*
Y507206D01*
D02*
G37*
G36*
X267013D02*
X258743D01*
Y498936D01*
X267013D01*
Y507206D01*
D02*
G37*
G36*
X228870D02*
X220600D01*
Y498936D01*
X228870D01*
Y507206D01*
D02*
G37*
G36*
X375865Y507157D02*
X367595D01*
Y498887D01*
X375865D01*
Y507157D01*
D02*
G37*
G36*
X365055D02*
X356785D01*
Y498887D01*
X365055D01*
Y507157D01*
D02*
G37*
G36*
X112749Y504965D02*
X112051Y504873D01*
X110217Y504113D01*
X108642Y502904D01*
X107433Y501329D01*
X106673Y499495D01*
X106414Y497527D01*
Y493297D01*
X112749D01*
Y504965D01*
D02*
G37*
G36*
X115289Y504965D02*
Y493297D01*
X121624D01*
Y494140D01*
X124164Y494645D01*
X124292Y494336D01*
X125628Y493000D01*
X127374Y492277D01*
X129264D01*
X131010Y493000D01*
X132346Y494336D01*
X133069Y496082D01*
Y497972D01*
X132346Y499717D01*
X131010Y501054D01*
X129264Y501777D01*
X127374D01*
X125628Y501054D01*
X124292Y499717D01*
X123993Y498995D01*
X121386Y499338D01*
X121365Y499495D01*
X120605Y501329D01*
X119397Y502904D01*
X117822Y504113D01*
X115988Y504873D01*
X115289Y504965D01*
D02*
G37*
G36*
X208024Y490757D02*
X200419D01*
X192814D01*
Y486527D01*
X193073Y484558D01*
X193742Y482944D01*
X193749Y482907D01*
X193737Y482485D01*
X192733Y479986D01*
X191856Y479622D01*
X190087Y477853D01*
X189137Y475560D01*
X201701D01*
X201321Y476479D01*
X202331Y479037D01*
X202690Y479306D01*
X204222Y479941D01*
X205797Y481149D01*
X207005Y482724D01*
X207765Y484558D01*
X208024Y486527D01*
Y490757D01*
D02*
G37*
G36*
X165677Y504339D02*
X163588D01*
X161658Y503540D01*
X160182Y502063D01*
X159382Y500133D01*
Y498045D01*
X160182Y496115D01*
X161574Y494723D01*
Y485545D01*
X153889Y477861D01*
X151921D01*
X149991Y477061D01*
X148514Y475585D01*
X147715Y473655D01*
Y471566D01*
X145899Y469315D01*
X145388Y469173D01*
X137973Y476588D01*
Y477114D01*
X137174Y479044D01*
X135697Y480521D01*
X133767Y481320D01*
X131679D01*
X129749Y480521D01*
X128272Y479044D01*
X127473Y477114D01*
Y476585D01*
X127473Y476526D01*
X124933Y476021D01*
X124892Y476119D01*
X124352Y477424D01*
X122582Y479194D01*
X121456Y479660D01*
X120483Y482357D01*
X120505Y482594D01*
X120605Y482724D01*
X121365Y484558D01*
X121624Y486527D01*
Y490757D01*
X114019D01*
X106414D01*
Y486527D01*
X106673Y484558D01*
X107433Y482724D01*
X108642Y481149D01*
X110217Y479941D01*
X112051Y479181D01*
X112165Y479058D01*
X113286Y476456D01*
X112737Y475131D01*
X119019D01*
Y473861D01*
X120289D01*
Y467579D01*
X122582Y468529D01*
X124352Y470298D01*
X125309Y472610D01*
Y473553D01*
X125309Y473612D01*
X127849Y474117D01*
X127890Y474019D01*
X128272Y473096D01*
X129749Y471619D01*
X131679Y470820D01*
X132205D01*
X142359Y460666D01*
X142359Y460666D01*
X143682Y459782D01*
X145243Y459472D01*
X169095D01*
X169095Y459472D01*
X170656Y459782D01*
X171979Y460666D01*
X181775Y470463D01*
X182302D01*
X184232Y471262D01*
X185709Y472739D01*
X186508Y474669D01*
Y476757D01*
X185709Y478687D01*
X184232Y480164D01*
X182302Y480963D01*
X180214D01*
X178284Y480164D01*
X176807Y478687D01*
X176008Y476757D01*
Y476231D01*
X167406Y467628D01*
X159000D01*
X158399Y468389D01*
X157636Y470168D01*
X158215Y471566D01*
Y473535D01*
X166795Y482115D01*
X166795Y482115D01*
X167458Y483107D01*
X167691Y484278D01*
Y494723D01*
X169083Y496115D01*
X169882Y498045D01*
Y500133D01*
X169083Y502063D01*
X167606Y503540D01*
X165677Y504339D01*
D02*
G37*
G36*
X201701Y473020D02*
X196689D01*
Y468008D01*
X198982Y468958D01*
X200752Y470727D01*
X201701Y473020D01*
D02*
G37*
G36*
X194149D02*
X189137D01*
X190087Y470727D01*
X191856Y468958D01*
X194149Y468008D01*
Y473020D01*
D02*
G37*
G36*
X117749Y472591D02*
X112737D01*
X113687Y470298D01*
X115456Y468529D01*
X117749Y467579D01*
Y472591D01*
D02*
G37*
G36*
X179535Y432219D02*
Y427207D01*
X184547D01*
X183598Y429500D01*
X181828Y431269D01*
X179535Y432219D01*
D02*
G37*
G36*
X176995D02*
X174702Y431269D01*
X172933Y429500D01*
X171983Y427207D01*
X176995D01*
Y432219D01*
D02*
G37*
G36*
X136451D02*
Y427207D01*
X141463D01*
X140513Y429500D01*
X138743Y431269D01*
X136451Y432219D01*
D02*
G37*
G36*
X133911D02*
X131617Y431269D01*
X129848Y429500D01*
X128898Y427207D01*
X133911D01*
Y432219D01*
D02*
G37*
G36*
X184547Y424667D02*
X179535D01*
Y419654D01*
X181828Y420604D01*
X183598Y422374D01*
X184547Y424667D01*
D02*
G37*
G36*
X176995D02*
X171983D01*
X172933Y422374D01*
X174702Y420604D01*
X176995Y419654D01*
Y424667D01*
D02*
G37*
G36*
X141463D02*
X136451D01*
Y419654D01*
X138743Y420604D01*
X140513Y422374D01*
X141463Y424667D01*
D02*
G37*
G36*
X133911D02*
X128898D01*
X129848Y422374D01*
X131617Y420604D01*
X133911Y419654D01*
Y424667D01*
D02*
G37*
G36*
X281723Y405510D02*
X279617D01*
X277582Y404965D01*
X275758Y403912D01*
X274268Y402422D01*
X273215Y400598D01*
X272670Y398563D01*
Y396457D01*
X273215Y394422D01*
X274268Y392598D01*
X275758Y391108D01*
X277582Y390055D01*
X279617Y389510D01*
X281723D01*
X283758Y390055D01*
X285582Y391108D01*
X287072Y392598D01*
X288125Y394422D01*
X288670Y396457D01*
Y398563D01*
X288125Y400598D01*
X287072Y402422D01*
X285582Y403912D01*
X283758Y404965D01*
X281723Y405510D01*
D02*
G37*
G36*
X557530Y388442D02*
Y383430D01*
X562542D01*
X561592Y385723D01*
X559823Y387492D01*
X557530Y388442D01*
D02*
G37*
G36*
X554990D02*
X552697Y387492D01*
X550928Y385723D01*
X549978Y383430D01*
X554990D01*
Y388442D01*
D02*
G37*
G36*
X533400D02*
Y383430D01*
X538412D01*
X537462Y385723D01*
X535693Y387492D01*
X533400Y388442D01*
D02*
G37*
G36*
X530860D02*
X528567Y387492D01*
X526798Y385723D01*
X525848Y383430D01*
X530860D01*
Y388442D01*
D02*
G37*
G36*
X505220Y387222D02*
Y382210D01*
X510232D01*
X509282Y384503D01*
X507513Y386272D01*
X505220Y387222D01*
D02*
G37*
G36*
X502680D02*
X500387Y386272D01*
X498618Y384503D01*
X497668Y382210D01*
X502680D01*
Y387222D01*
D02*
G37*
G36*
X562542Y380890D02*
X557530D01*
Y375878D01*
X559823Y376828D01*
X561592Y378597D01*
X562542Y380890D01*
D02*
G37*
G36*
X554990D02*
X549978D01*
X550928Y378597D01*
X552697Y376828D01*
X554990Y375878D01*
Y380890D01*
D02*
G37*
G36*
X538412D02*
X533400D01*
Y375878D01*
X535693Y376828D01*
X537462Y378597D01*
X538412Y380890D01*
D02*
G37*
G36*
X530860D02*
X525848D01*
X526798Y378597D01*
X528567Y376828D01*
X530860Y375878D01*
Y380890D01*
D02*
G37*
G36*
X510232Y379670D02*
X505220D01*
Y374658D01*
X507513Y375608D01*
X509282Y377377D01*
X510232Y379670D01*
D02*
G37*
G36*
X502680D02*
X497668D01*
X498618Y377377D01*
X500387Y375608D01*
X502680Y374658D01*
Y379670D01*
D02*
G37*
G36*
X118855Y378438D02*
Y373426D01*
X123867D01*
X122917Y375719D01*
X121148Y377489D01*
X118855Y378438D01*
D02*
G37*
G36*
X116315D02*
X114022Y377489D01*
X112253Y375719D01*
X111303Y373426D01*
X116315D01*
Y378438D01*
D02*
G37*
G36*
X123867Y370886D02*
X118855D01*
Y365874D01*
X121148Y366824D01*
X122917Y368593D01*
X123867Y370886D01*
D02*
G37*
G36*
X116315D02*
X111303D01*
X112253Y368593D01*
X114022Y366824D01*
X116315Y365874D01*
Y370886D01*
D02*
G37*
G36*
X158145Y392703D02*
X157628Y392600D01*
X157101D01*
X156614Y392398D01*
X156097Y392295D01*
X155658Y392002D01*
X155171Y391801D01*
X154798Y391428D01*
X154360Y391135D01*
X154067Y390697D01*
X153694Y390324D01*
X153492Y389837D01*
X153200Y389398D01*
X153097Y388881D01*
X152895Y388394D01*
Y387867D01*
X152792Y387350D01*
Y366425D01*
X150252Y365373D01*
X149613Y366012D01*
X147320Y366962D01*
Y360680D01*
Y354398D01*
X148007Y354682D01*
X150874Y353290D01*
X150941Y352952D01*
X132105Y334116D01*
X130945Y332379D01*
X130537Y330331D01*
Y287107D01*
X130945Y285059D01*
X132105Y283322D01*
X148702Y266725D01*
X149141Y266432D01*
X149513Y266059D01*
X150001Y265858D01*
X150439Y265565D01*
X150956Y265462D01*
X151443Y265260D01*
X151970D01*
X152487Y265157D01*
X153004Y265260D01*
X153532D01*
X154019Y265462D01*
X154536Y265565D01*
X154974Y265857D01*
X155461Y266059D01*
X155834Y266432D01*
X156272Y266725D01*
X156565Y267163D01*
X156938Y267536D01*
X157140Y268023D01*
X157433Y268462D01*
X157535Y268979D01*
X157737Y269466D01*
Y269993D01*
X157840Y270510D01*
X157737Y271027D01*
Y271554D01*
X157535Y272041D01*
X157433Y272558D01*
X157140Y272997D01*
X156938Y273484D01*
X156565Y273857D01*
X156272Y274295D01*
X141243Y289324D01*
Y328114D01*
X161930Y348801D01*
X163090Y350537D01*
X163498Y352586D01*
Y387350D01*
X163395Y387867D01*
Y388394D01*
X163193Y388881D01*
X163090Y389398D01*
X162798Y389837D01*
X162596Y390324D01*
X162223Y390697D01*
X161930Y391135D01*
X161492Y391428D01*
X161119Y391801D01*
X160632Y392002D01*
X160193Y392295D01*
X159676Y392398D01*
X159189Y392600D01*
X158662D01*
X158145Y392703D01*
D02*
G37*
G36*
X225393Y378610D02*
X223287D01*
X221252Y378065D01*
X219428Y377012D01*
X217938Y375522D01*
X216885Y373698D01*
X216340Y371663D01*
Y369557D01*
X216885Y367522D01*
X217938Y365698D01*
X219428Y364208D01*
X221252Y363155D01*
X223287Y362610D01*
X225393D01*
X227428Y363155D01*
X229252Y364208D01*
X230742Y365698D01*
X231795Y367522D01*
X232340Y369557D01*
Y371663D01*
X231795Y373698D01*
X230742Y375522D01*
X229252Y377012D01*
X227428Y378065D01*
X225393Y378610D01*
D02*
G37*
G36*
X144780Y366962D02*
X142487Y366012D01*
X140718Y364243D01*
X139768Y361950D01*
X144780D01*
Y366962D01*
D02*
G37*
G36*
Y359410D02*
X139768D01*
X140718Y357117D01*
X142487Y355348D01*
X144780Y354398D01*
Y359410D01*
D02*
G37*
G36*
X153539Y319477D02*
Y314465D01*
X158551D01*
X157602Y316758D01*
X155832Y318528D01*
X153539Y319477D01*
D02*
G37*
G36*
X150999D02*
X148706Y318528D01*
X146937Y316758D01*
X145987Y314465D01*
X150999D01*
Y319477D01*
D02*
G37*
G36*
X158551Y311925D02*
X153539D01*
Y306913D01*
X155832Y307863D01*
X157602Y309632D01*
X158551Y311925D01*
D02*
G37*
G36*
X150999D02*
X145987D01*
X146937Y309632D01*
X148706Y307863D01*
X150999Y306913D01*
Y311925D01*
D02*
G37*
G36*
X225393Y317809D02*
X223287D01*
X221252Y317264D01*
X219428Y316210D01*
X217938Y314721D01*
X216885Y312897D01*
X216340Y310862D01*
Y308756D01*
X216885Y306721D01*
X217938Y304897D01*
X219428Y303407D01*
X221252Y302354D01*
X223287Y301809D01*
X225393D01*
X227428Y302354D01*
X229252Y303407D01*
X230742Y304897D01*
X231795Y306721D01*
X232340Y308756D01*
Y310862D01*
X231795Y312897D01*
X230742Y314721D01*
X229252Y316210D01*
X227428Y317264D01*
X225393Y317809D01*
D02*
G37*
G36*
X533400Y288332D02*
Y283320D01*
X538412D01*
X537462Y285613D01*
X535693Y287382D01*
X533400Y288332D01*
D02*
G37*
G36*
X530860D02*
X528567Y287382D01*
X526798Y285613D01*
X525848Y283320D01*
X530860D01*
Y288332D01*
D02*
G37*
G36*
X538412Y280780D02*
X533400D01*
Y275768D01*
X535693Y276718D01*
X537462Y278487D01*
X538412Y280780D01*
D02*
G37*
G36*
X530860D02*
X525848D01*
X526798Y278487D01*
X528567Y276718D01*
X530860Y275768D01*
Y280780D01*
D02*
G37*
G36*
X101270Y280602D02*
Y275590D01*
X106282D01*
X105332Y277883D01*
X103563Y279652D01*
X101270Y280602D01*
D02*
G37*
G36*
X98730D02*
X96437Y279652D01*
X94668Y277883D01*
X93718Y275590D01*
X98730D01*
Y280602D01*
D02*
G37*
G36*
X24320Y279332D02*
Y274320D01*
X29332D01*
X28382Y276613D01*
X26613Y278382D01*
X24320Y279332D01*
D02*
G37*
G36*
X21780D02*
X19487Y278382D01*
X17718Y276613D01*
X16768Y274320D01*
X21780D01*
Y279332D01*
D02*
G37*
G36*
X106282Y273050D02*
X101270D01*
Y268038D01*
X103563Y268988D01*
X105332Y270757D01*
X106282Y273050D01*
D02*
G37*
G36*
X98730D02*
X93718D01*
X94668Y270757D01*
X96437Y268988D01*
X98730Y268038D01*
Y273050D01*
D02*
G37*
G36*
X29332Y271780D02*
X24320D01*
Y266768D01*
X26613Y267718D01*
X28382Y269487D01*
X29332Y271780D01*
D02*
G37*
G36*
X21780D02*
X16768D01*
X17718Y269487D01*
X19487Y267718D01*
X21780Y266768D01*
Y271780D01*
D02*
G37*
G36*
X280453Y282530D02*
X278347D01*
X276312Y281985D01*
X274488Y280932D01*
X272998Y279442D01*
X271945Y277618D01*
X271400Y275583D01*
Y273477D01*
X271945Y271442D01*
X272998Y269618D01*
X274488Y268128D01*
X276312Y267075D01*
X278347Y266530D01*
X280453D01*
X282488Y267075D01*
X284312Y268128D01*
X285802Y269618D01*
X286855Y271442D01*
X287400Y273477D01*
Y275583D01*
X286855Y277618D01*
X285802Y279442D01*
X284312Y280932D01*
X282488Y281985D01*
X280453Y282530D01*
D02*
G37*
G36*
X204888Y279826D02*
X202782D01*
X200747Y279281D01*
X198923Y278228D01*
X197433Y276738D01*
X196380Y274914D01*
X195835Y272880D01*
Y270773D01*
X196380Y268738D01*
X197433Y266914D01*
X198923Y265425D01*
X200747Y264371D01*
X202782Y263826D01*
X204888D01*
X206923Y264371D01*
X208747Y265425D01*
X210237Y266914D01*
X211290Y268738D01*
X211835Y270773D01*
Y272880D01*
X211290Y274914D01*
X210237Y276738D01*
X208747Y278228D01*
X206923Y279281D01*
X204888Y279826D01*
D02*
G37*
G36*
X24320Y251392D02*
Y246380D01*
X29332D01*
X28382Y248673D01*
X26613Y250442D01*
X24320Y251392D01*
D02*
G37*
G36*
X21780D02*
X19487Y250442D01*
X17718Y248673D01*
X16768Y246380D01*
X21780D01*
Y251392D01*
D02*
G37*
G36*
X29332Y243840D02*
X24320D01*
Y238828D01*
X26613Y239778D01*
X28382Y241547D01*
X29332Y243840D01*
D02*
G37*
G36*
X21780D02*
X16768D01*
X17718Y241547D01*
X19487Y239778D01*
X21780Y238828D01*
Y243840D01*
D02*
G37*
G36*
X185420Y215832D02*
Y210820D01*
X190432D01*
X189482Y213113D01*
X187713Y214882D01*
X185420Y215832D01*
D02*
G37*
G36*
X182880D02*
X180587Y214882D01*
X178818Y213113D01*
X177868Y210820D01*
X182880D01*
Y215832D01*
D02*
G37*
G36*
X190432Y208280D02*
X185420D01*
Y203268D01*
X187713Y204218D01*
X189482Y205987D01*
X190432Y208280D01*
D02*
G37*
G36*
X182880D02*
X177868D01*
X178818Y205987D01*
X180587Y204218D01*
X182880Y203268D01*
Y208280D01*
D02*
G37*
G36*
X242746Y217607D02*
X240640D01*
X238605Y217062D01*
X236781Y216009D01*
X235291Y214519D01*
X234238Y212695D01*
X233693Y210660D01*
Y208554D01*
X234238Y206519D01*
X235291Y204695D01*
X236781Y203206D01*
X238605Y202152D01*
X240640Y201607D01*
X242746D01*
X244781Y202152D01*
X246605Y203206D01*
X248094Y204695D01*
X249148Y206519D01*
X249693Y208554D01*
Y210660D01*
X249148Y212695D01*
X248094Y214519D01*
X246605Y216009D01*
X244781Y217062D01*
X242746Y217607D01*
D02*
G37*
G36*
X171450Y200592D02*
Y195580D01*
X176462D01*
X175512Y197873D01*
X173743Y199642D01*
X171450Y200592D01*
D02*
G37*
G36*
X168910D02*
X166617Y199642D01*
X164848Y197873D01*
X163898Y195580D01*
X168910D01*
Y200592D01*
D02*
G37*
G36*
X24320Y199322D02*
Y194310D01*
X29332D01*
X28382Y196603D01*
X26613Y198372D01*
X24320Y199322D01*
D02*
G37*
G36*
X21780D02*
X19487Y198372D01*
X17718Y196603D01*
X16768Y194310D01*
X21780D01*
Y199322D01*
D02*
G37*
G36*
X176462Y193040D02*
X171450D01*
Y188028D01*
X173743Y188978D01*
X175512Y190747D01*
X176462Y193040D01*
D02*
G37*
G36*
X168910D02*
X163898D01*
X164848Y190747D01*
X166617Y188978D01*
X168910Y188028D01*
Y193040D01*
D02*
G37*
G36*
X142264Y192532D02*
Y187520D01*
X147276D01*
X146326Y189813D01*
X144557Y191582D01*
X142264Y192532D01*
D02*
G37*
G36*
X139724D02*
X137431Y191582D01*
X135661Y189813D01*
X134712Y187520D01*
X139724D01*
Y192532D01*
D02*
G37*
G36*
X117882D02*
Y187520D01*
X122894D01*
X121944Y189813D01*
X120175Y191582D01*
X117882Y192532D01*
D02*
G37*
G36*
X115342D02*
X113049Y191582D01*
X111279Y189813D01*
X110330Y187520D01*
X115342D01*
Y192532D01*
D02*
G37*
G36*
X29332Y191770D02*
X24320D01*
Y186758D01*
X26613Y187708D01*
X28382Y189477D01*
X29332Y191770D01*
D02*
G37*
G36*
X21780D02*
X16768D01*
X17718Y189477D01*
X19487Y187708D01*
X21780Y186758D01*
Y191770D01*
D02*
G37*
G36*
X505220Y187102D02*
Y182090D01*
X510232D01*
X509282Y184383D01*
X507513Y186152D01*
X505220Y187102D01*
D02*
G37*
G36*
X502680D02*
X500387Y186152D01*
X498618Y184383D01*
X497668Y182090D01*
X502680D01*
Y187102D01*
D02*
G37*
G36*
X147276Y184980D02*
X142264D01*
Y179968D01*
X144557Y180918D01*
X146326Y182687D01*
X147276Y184980D01*
D02*
G37*
G36*
X139724D02*
X134712D01*
X135661Y182687D01*
X137431Y180918D01*
X139724Y179968D01*
Y184980D01*
D02*
G37*
G36*
X122894D02*
X117882D01*
Y179968D01*
X120175Y180918D01*
X121944Y182687D01*
X122894Y184980D01*
D02*
G37*
G36*
X115342D02*
X110330D01*
X111279Y182687D01*
X113049Y180918D01*
X115342Y179968D01*
Y184980D01*
D02*
G37*
G36*
X510232Y179550D02*
X505220D01*
Y174538D01*
X507513Y175488D01*
X509282Y177257D01*
X510232Y179550D01*
D02*
G37*
G36*
X502680D02*
X497668D01*
X498618Y177257D01*
X500387Y175488D01*
X502680Y174538D01*
Y179550D01*
D02*
G37*
G36*
X24320Y171382D02*
Y166370D01*
X29332D01*
X28382Y168663D01*
X26613Y170432D01*
X24320Y171382D01*
D02*
G37*
G36*
X21780D02*
X19487Y170432D01*
X17718Y168663D01*
X16768Y166370D01*
X21780D01*
Y171382D01*
D02*
G37*
G36*
X29332Y163830D02*
X24320D01*
Y158818D01*
X26613Y159768D01*
X28382Y161537D01*
X29332Y163830D01*
D02*
G37*
G36*
X21780D02*
X16768D01*
X17718Y161537D01*
X19487Y159768D01*
X21780Y158818D01*
Y163830D01*
D02*
G37*
G36*
X434476Y172409D02*
X432370D01*
X430335Y171864D01*
X428511Y170811D01*
X427022Y169321D01*
X425968Y167497D01*
X425423Y165462D01*
Y163356D01*
X425968Y161321D01*
X427022Y159497D01*
X428511Y158008D01*
X430335Y156954D01*
X432370Y156409D01*
X434476D01*
X436511Y156954D01*
X438335Y158008D01*
X439825Y159497D01*
X440878Y161321D01*
X441423Y163356D01*
Y165462D01*
X440878Y167497D01*
X439825Y169321D01*
X438335Y170811D01*
X436511Y171864D01*
X434476Y172409D01*
D02*
G37*
G36*
X196959Y129378D02*
Y124366D01*
X201972D01*
X201022Y126659D01*
X199252Y128429D01*
X196959Y129378D01*
D02*
G37*
G36*
X194419D02*
X192126Y128429D01*
X190357Y126659D01*
X189407Y124366D01*
X194419D01*
Y129378D01*
D02*
G37*
G36*
X279621Y193394D02*
X210820D01*
X209672Y192918D01*
X209196Y191770D01*
Y125730D01*
X209672Y124582D01*
X210820Y124106D01*
X279621D01*
X280769Y124582D01*
X281244Y125730D01*
Y191770D01*
X280769Y192918D01*
X279621Y193394D01*
D02*
G37*
G36*
X201972Y121826D02*
X196959D01*
Y116814D01*
X199252Y117764D01*
X201022Y119533D01*
X201972Y121826D01*
D02*
G37*
G36*
X194419D02*
X189407D01*
X190357Y119533D01*
X192126Y117764D01*
X194419Y116814D01*
Y121826D01*
D02*
G37*
G36*
X24320Y120582D02*
Y115570D01*
X29332D01*
X28382Y117863D01*
X26613Y119632D01*
X24320Y120582D01*
D02*
G37*
G36*
X21780D02*
X19487Y119632D01*
X17718Y117863D01*
X16768Y115570D01*
X21780D01*
Y120582D01*
D02*
G37*
G36*
X29332Y113030D02*
X24320D01*
Y108018D01*
X26613Y108968D01*
X28382Y110737D01*
X29332Y113030D01*
D02*
G37*
G36*
X21780D02*
X16768D01*
X17718Y110737D01*
X19487Y108968D01*
X21780Y108018D01*
Y113030D01*
D02*
G37*
G36*
X270510Y115699D02*
Y107950D01*
X278259D01*
X277664Y110169D01*
X276474Y112231D01*
X274791Y113914D01*
X272729Y115104D01*
X270510Y115699D01*
D02*
G37*
G36*
X267970D02*
X265751Y115104D01*
X263689Y113914D01*
X262006Y112231D01*
X260816Y110169D01*
X260221Y107950D01*
X267970D01*
Y115699D01*
D02*
G37*
G36*
X278259Y105410D02*
X270510D01*
Y97661D01*
X272729Y98256D01*
X274791Y99446D01*
X276474Y101129D01*
X277664Y103191D01*
X278259Y105410D01*
D02*
G37*
G36*
X267970D02*
X260221D01*
X260816Y103191D01*
X262006Y101129D01*
X263689Y99446D01*
X265751Y98256D01*
X267970Y97661D01*
Y105410D01*
D02*
G37*
G36*
X24320Y92642D02*
Y87630D01*
X29332D01*
X28382Y89923D01*
X26613Y91692D01*
X24320Y92642D01*
D02*
G37*
G36*
X21780D02*
X19487Y91692D01*
X17718Y89923D01*
X16768Y87630D01*
X21780D01*
Y92642D01*
D02*
G37*
G36*
X512314Y91589D02*
Y86577D01*
X517327D01*
X516377Y88870D01*
X514607Y90639D01*
X512314Y91589D01*
D02*
G37*
G36*
X509774D02*
X507481Y90639D01*
X505712Y88870D01*
X504762Y86577D01*
X509774D01*
Y91589D01*
D02*
G37*
G36*
X484374D02*
Y86577D01*
X489386D01*
X488437Y88870D01*
X486667Y90639D01*
X484374Y91589D01*
D02*
G37*
G36*
X481834D02*
X479541Y90639D01*
X477772Y88870D01*
X476822Y86577D01*
X481834D01*
Y91589D01*
D02*
G37*
G36*
X354330Y91562D02*
Y86550D01*
X359342D01*
X358392Y88843D01*
X356623Y90612D01*
X354330Y91562D01*
D02*
G37*
G36*
X351790D02*
X349497Y90612D01*
X347728Y88843D01*
X346778Y86550D01*
X351790D01*
Y91562D01*
D02*
G37*
G36*
X326390D02*
Y86550D01*
X331402D01*
X330452Y88843D01*
X328683Y90612D01*
X326390Y91562D01*
D02*
G37*
G36*
X323850D02*
X321557Y90612D01*
X319788Y88843D01*
X318838Y86550D01*
X323850D01*
Y91562D01*
D02*
G37*
G36*
X433111Y91535D02*
Y86523D01*
X438123D01*
X437173Y88816D01*
X435404Y90586D01*
X433111Y91535D01*
D02*
G37*
G36*
X430571D02*
X428278Y90586D01*
X426509Y88816D01*
X425559Y86523D01*
X430571D01*
Y91535D01*
D02*
G37*
G36*
X405171D02*
Y86523D01*
X410183D01*
X409233Y88816D01*
X407464Y90586D01*
X405171Y91535D01*
D02*
G37*
G36*
X402631D02*
X400338Y90586D01*
X398569Y88816D01*
X397619Y86523D01*
X402631D01*
Y91535D01*
D02*
G37*
G36*
X29332Y85090D02*
X24320D01*
Y80078D01*
X26613Y81028D01*
X28382Y82797D01*
X29332Y85090D01*
D02*
G37*
G36*
X21780D02*
X16768D01*
X17718Y82797D01*
X19487Y81028D01*
X21780Y80078D01*
Y85090D01*
D02*
G37*
G36*
X517327Y84037D02*
X512314D01*
Y79025D01*
X514607Y79975D01*
X516377Y81744D01*
X517327Y84037D01*
D02*
G37*
G36*
X509774D02*
X504762D01*
X505712Y81744D01*
X507481Y79975D01*
X509774Y79025D01*
Y84037D01*
D02*
G37*
G36*
X489386D02*
X484374D01*
Y79025D01*
X486667Y79975D01*
X488437Y81744D01*
X489386Y84037D01*
D02*
G37*
G36*
X481834D02*
X476822D01*
X477772Y81744D01*
X479541Y79975D01*
X481834Y79025D01*
Y84037D01*
D02*
G37*
G36*
X359342Y84010D02*
X354330D01*
Y78998D01*
X356623Y79948D01*
X358392Y81717D01*
X359342Y84010D01*
D02*
G37*
G36*
X351790D02*
X346778D01*
X347728Y81717D01*
X349497Y79948D01*
X351790Y78998D01*
Y84010D01*
D02*
G37*
G36*
X331402D02*
X326390D01*
Y78998D01*
X328683Y79948D01*
X330452Y81717D01*
X331402Y84010D01*
D02*
G37*
G36*
X323850D02*
X318838D01*
X319788Y81717D01*
X321557Y79948D01*
X323850Y78998D01*
Y84010D01*
D02*
G37*
G36*
X438123Y83983D02*
X433111D01*
Y78971D01*
X435404Y79921D01*
X437173Y81690D01*
X438123Y83983D01*
D02*
G37*
G36*
X430571D02*
X425559D01*
X426509Y81690D01*
X428278Y79921D01*
X430571Y78971D01*
Y83983D01*
D02*
G37*
G36*
X410183D02*
X405171D01*
Y78971D01*
X407464Y79921D01*
X409233Y81690D01*
X410183Y83983D01*
D02*
G37*
G36*
X402631D02*
X397619D01*
X398569Y81690D01*
X400338Y79921D01*
X402631Y78971D01*
Y83983D01*
D02*
G37*
G36*
X250446Y88887D02*
X248340D01*
X246305Y88342D01*
X244481Y87288D01*
X242992Y85799D01*
X241938Y83975D01*
X241393Y81940D01*
Y79834D01*
X241938Y77799D01*
X242992Y75975D01*
X244481Y74485D01*
X246305Y73432D01*
X248340Y72887D01*
X250446D01*
X252481Y73432D01*
X254305Y74485D01*
X255795Y75975D01*
X256848Y77799D01*
X257393Y79834D01*
Y81940D01*
X256848Y83975D01*
X255795Y85799D01*
X254305Y87288D01*
X252481Y88342D01*
X250446Y88887D01*
D02*
G37*
G36*
X171233D02*
X169127D01*
X167092Y88342D01*
X165268Y87288D01*
X163778Y85799D01*
X162725Y83975D01*
X162180Y81940D01*
Y79834D01*
X162725Y77799D01*
X163778Y75975D01*
X165268Y74485D01*
X167092Y73432D01*
X169127Y72887D01*
X171233D01*
X173268Y73432D01*
X175092Y74485D01*
X176582Y75975D01*
X177635Y77799D01*
X178180Y79834D01*
Y81940D01*
X177635Y83975D01*
X176582Y85799D01*
X175092Y87288D01*
X173268Y88342D01*
X171233Y88887D01*
D02*
G37*
G36*
X145933Y74375D02*
Y69363D01*
X150945D01*
X149995Y71656D01*
X148226Y73425D01*
X145933Y74375D01*
D02*
G37*
G36*
X143393D02*
X141100Y73425D01*
X139331Y71656D01*
X138381Y69363D01*
X143393D01*
Y74375D01*
D02*
G37*
G36*
X456840Y73452D02*
Y68440D01*
X461852D01*
X460902Y70733D01*
X459133Y72502D01*
X456840Y73452D01*
D02*
G37*
G36*
X454300D02*
X452007Y72502D01*
X450238Y70733D01*
X449288Y68440D01*
X454300D01*
Y73452D01*
D02*
G37*
G36*
X116840D02*
Y68440D01*
X121852D01*
X120902Y70733D01*
X119133Y72502D01*
X116840Y73452D01*
D02*
G37*
G36*
X114300D02*
X112007Y72502D01*
X110238Y70733D01*
X109288Y68440D01*
X114300D01*
Y73452D01*
D02*
G37*
G36*
X150945Y66823D02*
X145933D01*
Y61810D01*
X148226Y62760D01*
X149995Y64530D01*
X150945Y66823D01*
D02*
G37*
G36*
X143393D02*
X138381D01*
X139331Y64530D01*
X141100Y62760D01*
X143393Y61810D01*
Y66823D01*
D02*
G37*
G36*
X121852Y65900D02*
X116840D01*
Y60888D01*
X119133Y61838D01*
X120902Y63607D01*
X121852Y65900D01*
D02*
G37*
G36*
X114300D02*
X109288D01*
X110238Y63607D01*
X112007Y61838D01*
X114300Y60888D01*
Y65900D01*
D02*
G37*
G36*
X461852D02*
X456840D01*
Y60888D01*
X459133Y61838D01*
X460902Y63607D01*
X461852Y65900D01*
D02*
G37*
G36*
X454300D02*
X449288D01*
X450238Y63607D01*
X452007Y61838D01*
X454300Y60888D01*
Y65900D01*
D02*
G37*
G36*
X485933Y19122D02*
Y14110D01*
X490945D01*
X489995Y16403D01*
X488226Y18172D01*
X485933Y19122D01*
D02*
G37*
G36*
X483393D02*
X481100Y18172D01*
X479331Y16403D01*
X478381Y14110D01*
X483393D01*
Y19122D01*
D02*
G37*
G36*
X456840D02*
Y14110D01*
X461852D01*
X460902Y16403D01*
X459133Y18172D01*
X456840Y19122D01*
D02*
G37*
G36*
X454300D02*
X452007Y18172D01*
X450238Y16403D01*
X449288Y14110D01*
X454300D01*
Y19122D01*
D02*
G37*
G36*
X145933D02*
Y14110D01*
X150945D01*
X149995Y16403D01*
X148226Y18172D01*
X145933Y19122D01*
D02*
G37*
G36*
X143393D02*
X141100Y18172D01*
X139331Y16403D01*
X138381Y14110D01*
X143393D01*
Y19122D01*
D02*
G37*
G36*
X116840D02*
Y14110D01*
X121852D01*
X120902Y16403D01*
X119133Y18172D01*
X116840Y19122D01*
D02*
G37*
G36*
X114300D02*
X112007Y18172D01*
X110238Y16403D01*
X109288Y14110D01*
X114300D01*
Y19122D01*
D02*
G37*
%LPD*%
D50*
X293683Y508476D02*
D03*
X244730D02*
D03*
X342643D02*
D03*
X391725Y508427D02*
D03*
D53*
X403901Y85253D02*
D03*
X431841D02*
D03*
X23050Y165100D02*
D03*
Y193040D02*
D03*
X158145Y387350D02*
D03*
X152487Y270510D02*
D03*
X152269Y313195D02*
D03*
X100000Y274320D02*
D03*
X146050Y360680D02*
D03*
X117585Y372156D02*
D03*
X503950Y180820D02*
D03*
X178265Y425937D02*
D03*
X135181D02*
D03*
X181258Y475713D02*
D03*
X132723Y476070D02*
D03*
X164632Y499089D02*
D03*
X152965Y472611D02*
D03*
X195419Y474290D02*
D03*
X119019Y473861D02*
D03*
X503950Y380940D02*
D03*
X532130Y282050D02*
D03*
Y382160D02*
D03*
X556260D02*
D03*
X455570Y67170D02*
D03*
Y12840D02*
D03*
X484663D02*
D03*
X144663D02*
D03*
X115570D02*
D03*
X144663Y68092D02*
D03*
X115570Y67170D02*
D03*
X195689Y123096D02*
D03*
X170180Y194310D02*
D03*
X116612Y186250D02*
D03*
X140994D02*
D03*
X184150Y209550D02*
D03*
X230057Y133917D02*
D03*
X273050D02*
D03*
X258719D02*
D03*
X244388D02*
D03*
X273050Y150484D02*
D03*
X258719D02*
D03*
X273050Y167052D02*
D03*
X258719D02*
D03*
X273050Y183619D02*
D03*
X258719D02*
D03*
X244388D02*
D03*
X230057D02*
D03*
X483104Y85307D02*
D03*
X511044D02*
D03*
X325120Y85280D02*
D03*
X353060D02*
D03*
X23050Y273050D02*
D03*
Y245110D02*
D03*
Y86360D02*
D03*
Y114300D02*
D03*
D55*
X412750Y281880D02*
D03*
X440750D02*
D03*
Y309880D02*
D03*
X412750D02*
D03*
D57*
X152965Y472611D02*
X164632Y484278D01*
Y499089D01*
D60*
X158145Y352586D02*
Y387350D01*
X135890Y330331D02*
X158145Y352586D01*
X135890Y287107D02*
Y330331D01*
Y287107D02*
X152487Y270510D01*
D63*
X169095Y463550D02*
X181258Y475713D01*
X145243Y463550D02*
X169095D01*
X132723Y476070D02*
X145243Y463550D01*
D67*
X269240Y106680D02*
D03*
X249393Y80887D02*
D03*
X224340Y309809D02*
D03*
X279400Y274530D02*
D03*
X224340Y370610D02*
D03*
X280670Y397510D02*
D03*
X170180Y80887D02*
D03*
X241693Y209607D02*
D03*
X433423Y164409D02*
D03*
X203835Y271826D02*
D03*
D68*
X114019Y533827D02*
D03*
X200419D02*
D03*
D69*
X114019Y492027D02*
D03*
X200419D02*
D03*
D70*
X186119Y497027D02*
D03*
X128319D02*
D03*
D71*
X268283Y508476D02*
D03*
X219330D02*
D03*
X317243D02*
D03*
X366325Y508427D02*
D03*
D72*
X245220Y158750D02*
D03*
M02*
