G04*
G04 #@! TF.GenerationSoftware,Altium Limited,Altium Designer,25.2.1 (25)*
G04*
G04 Layer_Physical_Order=1*
G04 Layer_Color=255*
%FSLAX44Y44*%
%MOMM*%
G71*
G04*
G04 #@! TF.SameCoordinates,0CB7DE92-67F7-45F5-A009-4FBA8635F986*
G04*
G04*
G04 #@! TF.FilePolarity,Positive*
G04*
G01*
G75*
%ADD14R,0.3870X2.1772*%
G04:AMPARAMS|DCode=15|XSize=2.1772mm|YSize=0.387mm|CornerRadius=0.1935mm|HoleSize=0mm|Usage=FLASHONLY|Rotation=90.000|XOffset=0mm|YOffset=0mm|HoleType=Round|Shape=RoundedRectangle|*
%AMROUNDEDRECTD15*
21,1,2.1772,0.0000,0,0,90.0*
21,1,1.7902,0.3870,0,0,90.0*
1,1,0.3870,0.0000,0.8951*
1,1,0.3870,0.0000,-0.8951*
1,1,0.3870,0.0000,-0.8951*
1,1,0.3870,0.0000,0.8951*
%
%ADD15ROUNDEDRECTD15*%
G04:AMPARAMS|DCode=16|XSize=3.25mm|YSize=2.05mm|CornerRadius=0.0513mm|HoleSize=0mm|Usage=FLASHONLY|Rotation=90.000|XOffset=0mm|YOffset=0mm|HoleType=Round|Shape=RoundedRectangle|*
%AMROUNDEDRECTD16*
21,1,3.2500,1.9475,0,0,90.0*
21,1,3.1475,2.0500,0,0,90.0*
1,1,0.1025,0.9738,1.5738*
1,1,0.1025,0.9738,-1.5738*
1,1,0.1025,-0.9738,-1.5738*
1,1,0.1025,-0.9738,1.5738*
%
%ADD16ROUNDEDRECTD16*%
G04:AMPARAMS|DCode=17|XSize=1mm|YSize=2.05mm|CornerRadius=0.05mm|HoleSize=0mm|Usage=FLASHONLY|Rotation=90.000|XOffset=0mm|YOffset=0mm|HoleType=Round|Shape=RoundedRectangle|*
%AMROUNDEDRECTD17*
21,1,1.0000,1.9500,0,0,90.0*
21,1,0.9000,2.0500,0,0,90.0*
1,1,0.1000,0.9750,0.4500*
1,1,0.1000,0.9750,-0.4500*
1,1,0.1000,-0.9750,-0.4500*
1,1,0.1000,-0.9750,0.4500*
%
%ADD17ROUNDEDRECTD17*%
%ADD18R,0.9000X1.5000*%
%ADD19R,1.5000X0.9000*%
%ADD20R,0.9000X0.9000*%
%ADD21R,0.9000X0.9000*%
%ADD22R,1.7500X1.1500*%
%ADD23R,1.1500X1.7500*%
%ADD24R,0.9500X0.6000*%
%ADD25R,0.6000X1.1400*%
%ADD26R,0.3000X1.1400*%
%ADD27R,1.1000X1.9500*%
%ADD28R,1.8000X1.3000*%
%ADD29R,1.3000X1.8000*%
%ADD30R,1.6000X3.3000*%
%ADD31R,3.3000X1.6000*%
%ADD32R,4.0000X4.0000*%
%ADD50C,1.4000*%
%ADD53C,0.7500*%
%ADD55C,1.5000*%
%ADD57C,0.3000*%
%ADD58C,0.4000*%
%ADD59C,0.2540*%
%ADD60C,0.7500*%
%ADD61C,1.0000*%
%ADD62C,0.3810*%
%ADD63C,0.5000*%
%ADD64C,1.5000*%
%ADD65R,4.5720X4.5720*%
%ADD66R,6.8818X6.6040*%
%ADD67C,1.3000*%
%ADD68O,1.0000X1.8000*%
%ADD69O,1.0000X2.1000*%
%ADD70C,0.6500*%
%ADD71R,1.4000X1.4000*%
D14*
X120650Y297724D02*
D03*
D15*
X127000D02*
D03*
X133350D02*
D03*
X139700D02*
D03*
X146050D02*
D03*
X152400D02*
D03*
X158750D02*
D03*
X165100D02*
D03*
X171450D02*
D03*
X177800D02*
D03*
Y344989D02*
D03*
X171450D02*
D03*
X165100D02*
D03*
X158750D02*
D03*
X152400D02*
D03*
X146050D02*
D03*
X139700D02*
D03*
X133350D02*
D03*
X127000D02*
D03*
X120650D02*
D03*
D16*
X233680Y158750D02*
D03*
D17*
X170180Y135750D02*
D03*
Y158750D02*
D03*
Y181750D02*
D03*
D18*
X503950Y193380D02*
D03*
X491250D02*
D03*
X478550D02*
D03*
X465850D02*
D03*
X453150D02*
D03*
X440450D02*
D03*
X427750D02*
D03*
X415050D02*
D03*
X402350D02*
D03*
X389650D02*
D03*
X376950D02*
D03*
X364250D02*
D03*
X351550D02*
D03*
X338850D02*
D03*
Y368380D02*
D03*
X351550D02*
D03*
X364250D02*
D03*
X376950D02*
D03*
X389650D02*
D03*
X402350D02*
D03*
X415050D02*
D03*
X427750D02*
D03*
X440450D02*
D03*
X453150D02*
D03*
X465850D02*
D03*
X478550D02*
D03*
X491250D02*
D03*
X503950D02*
D03*
D19*
X326350Y211030D02*
D03*
Y223730D02*
D03*
Y236430D02*
D03*
Y249130D02*
D03*
Y261830D02*
D03*
Y274530D02*
D03*
Y287230D02*
D03*
Y299930D02*
D03*
Y312630D02*
D03*
Y325330D02*
D03*
Y338030D02*
D03*
Y350730D02*
D03*
D20*
X440750Y281880D02*
D03*
Y295880D02*
D03*
Y309880D02*
D03*
X412750Y281880D02*
D03*
Y295880D02*
D03*
Y309880D02*
D03*
X426750Y281880D02*
D03*
Y309880D02*
D03*
Y295880D02*
D03*
X239340Y326390D02*
D03*
X224340D02*
D03*
X239340Y346130D02*
D03*
X224340D02*
D03*
X565505Y324454D02*
D03*
X550505D02*
D03*
X229730Y478790D02*
D03*
X244730D02*
D03*
X278683D02*
D03*
X293683D02*
D03*
X327643D02*
D03*
X342643D02*
D03*
X376725D02*
D03*
X391725D02*
D03*
X466287Y169801D02*
D03*
X451287D02*
D03*
D21*
X203835Y290996D02*
D03*
Y305996D02*
D03*
X279400Y293139D02*
D03*
Y308138D02*
D03*
X280670Y379610D02*
D03*
Y364610D02*
D03*
X163951Y437059D02*
D03*
Y452059D02*
D03*
X149448Y437000D02*
D03*
Y452000D02*
D03*
X203817Y320288D02*
D03*
Y335288D02*
D03*
X178219Y437000D02*
D03*
Y452000D02*
D03*
X135181Y436941D02*
D03*
Y451941D02*
D03*
D22*
X580390Y340850D02*
D03*
Y370350D02*
D03*
D23*
X112250Y247650D02*
D03*
X141750D02*
D03*
D24*
X264375Y300638D02*
D03*
X239875Y291138D02*
D03*
Y310138D02*
D03*
X264980Y372110D02*
D03*
X240480Y362610D02*
D03*
Y381610D02*
D03*
D25*
X125219Y486327D02*
D03*
X133219D02*
D03*
X181219D02*
D03*
X189219D02*
D03*
D26*
X174719D02*
D03*
X139719D02*
D03*
X169719D02*
D03*
X144719D02*
D03*
X164719D02*
D03*
X149719D02*
D03*
X159719D02*
D03*
X154719D02*
D03*
D27*
X188058Y80887D02*
D03*
X231058D02*
D03*
X30570Y314960D02*
D03*
X73570D02*
D03*
D28*
X532130Y294610D02*
D03*
Y322610D02*
D03*
X141060Y172750D02*
D03*
Y144750D02*
D03*
X116546Y172618D02*
D03*
Y144618D02*
D03*
X532130Y369600D02*
D03*
Y341600D02*
D03*
X556260Y369600D02*
D03*
Y341600D02*
D03*
D29*
X195558Y209550D02*
D03*
X223558D02*
D03*
X195558Y108408D02*
D03*
X223558D02*
D03*
X130145Y372156D02*
D03*
X158145D02*
D03*
X113000Y270510D02*
D03*
X141000D02*
D03*
D30*
X497074Y85307D02*
D03*
Y140807D02*
D03*
X339090Y85280D02*
D03*
Y140780D02*
D03*
X417871Y85253D02*
D03*
Y140753D02*
D03*
D31*
X23050Y100330D02*
D03*
X78550D02*
D03*
X23050Y179070D02*
D03*
X78550D02*
D03*
X23050Y259080D02*
D03*
X78550D02*
D03*
D32*
X130000Y40000D02*
D03*
X470000D02*
D03*
X300000Y39643D02*
D03*
D50*
X293683Y508476D02*
D03*
X244730D02*
D03*
X342643D02*
D03*
X391725Y508427D02*
D03*
D53*
X403901Y85253D02*
D03*
X431841D02*
D03*
X23050Y165100D02*
D03*
Y193040D02*
D03*
X158145Y387350D02*
D03*
X152487Y270510D02*
D03*
X152269Y313195D02*
D03*
X100000Y274320D02*
D03*
X146050Y360680D02*
D03*
X117585Y372156D02*
D03*
X503950Y180820D02*
D03*
X178265Y425937D02*
D03*
X135181D02*
D03*
X181258Y475713D02*
D03*
X132723Y476070D02*
D03*
X164632Y499089D02*
D03*
X152965Y472611D02*
D03*
X195419Y474290D02*
D03*
X119019Y473861D02*
D03*
X503950Y380940D02*
D03*
X532130Y282050D02*
D03*
Y382160D02*
D03*
X556260D02*
D03*
X455570Y67170D02*
D03*
Y12840D02*
D03*
X484663D02*
D03*
X144663D02*
D03*
X115570D02*
D03*
X144663Y68092D02*
D03*
X115570Y67170D02*
D03*
X195689Y123096D02*
D03*
X170180Y194310D02*
D03*
X116612Y186250D02*
D03*
X140994D02*
D03*
X184150Y209550D02*
D03*
X230057Y133917D02*
D03*
X273050D02*
D03*
X258719D02*
D03*
X244388D02*
D03*
X273050Y150484D02*
D03*
X258719D02*
D03*
X273050Y167052D02*
D03*
X258719D02*
D03*
X273050Y183619D02*
D03*
X258719D02*
D03*
X244388D02*
D03*
X230057D02*
D03*
X483104Y85307D02*
D03*
X511044D02*
D03*
X325120Y85280D02*
D03*
X353060D02*
D03*
X23050Y273050D02*
D03*
Y245110D02*
D03*
Y86360D02*
D03*
Y114300D02*
D03*
D55*
X412750Y281880D02*
D03*
X440750D02*
D03*
Y309880D02*
D03*
X412750D02*
D03*
D57*
X432831Y163817D02*
X433423Y164409D01*
X445895D01*
X426847Y169801D02*
X432831Y163817D01*
X445895Y164409D02*
X451287Y169801D01*
X120816Y332020D02*
Y344822D01*
Y332020D02*
X122574Y330262D01*
X180991D01*
X133965Y325120D02*
X182212D01*
X120650Y297724D02*
Y311805D01*
X133965Y325120D01*
X137717Y320205D02*
X176171D01*
X197879Y298496D02*
X198092D01*
X176171Y320205D02*
X197879Y298496D01*
X211270Y327788D02*
X222370Y338887D01*
Y344160D01*
X224340Y346130D01*
X184880Y327788D02*
X211270D01*
X182212Y325120D02*
X184880Y327788D01*
X224340Y370610D02*
Y380686D01*
X127144Y309631D02*
X137717Y320205D01*
X127144Y297868D02*
Y309631D01*
X127000Y297724D02*
X127144Y297868D01*
X180991Y330262D02*
X183016Y332287D01*
X198092Y298496D02*
X198092Y298496D01*
X213027D01*
X224340Y309809D01*
X183016Y332287D02*
X200817D01*
X120650Y344989D02*
X120816Y344822D01*
X200817Y332287D02*
X203817Y335288D01*
Y320288D02*
X203835Y320269D01*
Y305996D02*
Y320269D01*
Y271826D02*
Y290996D01*
X248098Y388656D02*
X255544Y381210D01*
X224340Y380686D02*
X232309Y388656D01*
X248098D01*
X224340Y346130D02*
Y370610D01*
X255544Y306807D02*
Y381210D01*
X243125Y294389D02*
X255544Y306807D01*
X243125Y292638D02*
Y294389D01*
X241625Y291138D02*
X243125Y292638D01*
X239875Y291138D02*
X241625D01*
X239340Y326390D02*
X239875Y325855D01*
Y310138D02*
Y325855D01*
X239340Y346130D02*
X248920Y355710D01*
Y373170D01*
X243730Y378360D02*
X248920Y373170D01*
X243730Y378360D02*
Y380110D01*
X242230Y381610D02*
X243730Y380110D01*
X240480Y381610D02*
X242230D01*
X238730Y362610D02*
X240480D01*
X231840Y355720D02*
X238730Y362610D01*
X231840Y340387D02*
Y355720D01*
X231840Y340387D02*
X231840Y340387D01*
X231840Y333890D02*
Y340387D01*
X224340Y326390D02*
X231840Y333890D01*
X224340Y309809D02*
Y326390D01*
X203835Y271826D02*
X212771Y262890D01*
X233890D01*
X264375Y300638D02*
X266125D01*
X267625Y302138D01*
Y303888D01*
X271875Y308138D01*
X279400D01*
X264980Y372110D02*
X266730D01*
X268230Y370610D01*
Y368860D02*
Y370610D01*
Y368860D02*
X272480Y364610D01*
X280670D01*
Y379610D02*
Y397510D01*
X367250Y361572D02*
Y365380D01*
X361250Y371380D02*
X367250Y365380D01*
X374749Y354073D02*
X467996D01*
X367250Y361572D02*
X374749Y354073D01*
X475550Y361627D02*
Y365380D01*
X467996Y354073D02*
X475550Y361627D01*
Y365380D02*
X478550Y368380D01*
X481067Y339083D02*
Y365863D01*
Y339083D02*
X497540Y322610D01*
X478550Y368380D02*
X481067Y365863D01*
X361250Y371380D02*
Y374923D01*
X356563Y379610D02*
X361250Y374923D01*
X280670Y379610D02*
X356563D01*
X279400Y274530D02*
Y293139D01*
Y231140D02*
Y274530D01*
Y231140D02*
X317160Y193380D01*
X338850D01*
X139635Y297659D02*
X139866Y297427D01*
Y287977D02*
X144006Y283838D01*
X139866Y287977D02*
Y297427D01*
X144006Y283838D02*
X152487D01*
X186135Y250190D01*
X232410D01*
X139783Y470867D02*
Y481184D01*
X139719Y481248D02*
X139783Y481184D01*
X139719Y481248D02*
Y486263D01*
X135181Y466265D02*
X139783Y470867D01*
X164719Y486327D02*
Y501407D01*
X154719Y471246D02*
Y486327D01*
X159719Y470497D02*
Y486327D01*
X149448Y452000D02*
Y468603D01*
X152965Y472120D02*
Y472611D01*
X149448Y468603D02*
X152965Y472120D01*
X159719Y486327D02*
Y492769D01*
X149719Y493269D02*
X151477Y495027D01*
X157462D01*
X149719Y492027D02*
Y493269D01*
X157462Y495027D02*
X159719Y492769D01*
Y470497D02*
X163951Y466265D01*
Y452059D02*
Y466265D01*
X169719Y472813D02*
Y486327D01*
Y472813D02*
X178219Y464313D01*
Y452000D02*
Y464313D01*
X135181Y451941D02*
Y466265D01*
X440879Y176184D02*
X450150Y185456D01*
X320596Y176184D02*
X440879D01*
X233890Y262890D02*
X320596Y176184D01*
X450150Y185456D02*
Y190380D01*
X453150Y193380D01*
X312799Y169801D02*
X426847D01*
X232410Y250190D02*
X312799Y169801D01*
X465850Y167374D02*
Y193380D01*
X497540Y322610D02*
X532130D01*
X533974Y324454D01*
X550505D01*
X565505D02*
X567931Y326880D01*
Y331391D02*
X576890Y340350D01*
X567931Y326880D02*
Y331391D01*
X576890Y340350D02*
X580390D01*
D58*
X417871Y85253D02*
X431841D01*
X403901D02*
X417871D01*
X23050Y179070D02*
Y193040D01*
Y165100D02*
Y179070D01*
X133350Y280660D02*
X141000Y273010D01*
X133350Y280660D02*
Y297724D01*
X152335Y297789D02*
X152400Y297724D01*
X152269Y313195D02*
X152335Y313129D01*
Y297789D02*
Y313129D01*
X146050Y344989D02*
Y360680D01*
X178242Y425960D02*
X178265Y425937D01*
X178242Y425960D02*
Y436977D01*
X178219Y437000D02*
X178242Y436977D01*
X135181Y425937D02*
Y436941D01*
X195419Y474290D02*
Y475237D01*
X190219Y480437D02*
X195419Y475237D01*
X190219Y480437D02*
Y485327D01*
X189219Y486327D02*
X190219Y485327D01*
X119019Y473861D02*
Y474808D01*
X124219Y480008D01*
Y485327D01*
X125219Y486327D01*
X116546Y172618D02*
X116612Y172684D01*
X140994Y172816D02*
X141060Y172750D01*
X497074Y85307D02*
X511044D01*
X483104D02*
X497074D01*
X339090Y85280D02*
X353060D01*
X325120D02*
X339090D01*
X23050Y245110D02*
Y259080D01*
Y273050D01*
Y100330D02*
Y114300D01*
Y86360D02*
Y100330D01*
D59*
X229730Y478790D02*
X247740Y460780D01*
X334226D01*
X158145Y372156D02*
Y387350D01*
Y372156D02*
X158750Y371551D01*
Y344989D02*
Y371551D01*
Y344989D02*
X165100D01*
X152400D02*
X158750D01*
X391725Y478790D02*
Y508427D01*
X342643Y478790D02*
Y508476D01*
X293683Y478790D02*
Y508476D01*
X244730Y478790D02*
Y508476D01*
X376725Y461315D02*
Y478790D01*
X363365Y447954D02*
X376725Y461315D01*
X363365Y434862D02*
Y447954D01*
Y434862D02*
X405569Y392658D01*
X327643Y478790D02*
X359325Y447108D01*
Y433189D02*
Y447108D01*
X335899Y464820D02*
X355285Y445434D01*
Y431515D02*
Y445434D01*
X334226Y460780D02*
X351245Y443761D01*
Y429842D02*
Y443761D01*
X278683Y478790D02*
X292653Y464820D01*
X335899D01*
X403896Y388618D02*
X436550D01*
X359325Y433189D02*
X403896Y388618D01*
X355285Y431515D02*
X402350Y384450D01*
X427733D01*
X351245Y429842D02*
X400868Y380218D01*
X405569Y392658D02*
X438224D01*
X400868Y380218D02*
X420059D01*
X444762Y392607D02*
X458718Y378650D01*
X438275Y392607D02*
X444762D01*
X438224Y392658D02*
X438275Y392607D01*
X436550Y388618D02*
X449920Y375248D01*
X427733Y384450D02*
X437220Y374963D01*
X424520Y371610D02*
X427750Y368380D01*
X420059Y380218D02*
X424520Y375757D01*
Y371610D02*
Y375757D01*
X437220Y371610D02*
Y374963D01*
Y371610D02*
X440450Y368380D01*
X462620Y371610D02*
Y374748D01*
X460420Y376949D02*
X462620Y374748D01*
X458797Y378650D02*
X460420Y377027D01*
X458718Y378650D02*
X458797D01*
X460420Y376949D02*
Y377027D01*
X462620Y371610D02*
X465850Y368380D01*
X449920Y371610D02*
X453150Y368380D01*
X449920Y371610D02*
Y375248D01*
D60*
X141000Y270510D02*
X152487D01*
X141000Y268010D02*
Y270510D01*
X114250Y252650D02*
X120570D01*
X112250Y250650D02*
X114250Y252650D01*
X120570D02*
X133180Y265260D01*
X138250D01*
X141000Y268010D01*
X112250Y247650D02*
Y250650D01*
D61*
X113145Y270510D02*
Y272675D01*
X100000Y274320D02*
X111500D01*
X113145Y272675D01*
X117585Y372156D02*
X130145D01*
X503950Y180820D02*
Y193380D01*
Y368380D02*
Y380940D01*
X532130Y282050D02*
Y294610D01*
Y369600D02*
Y382160D01*
X556260Y369600D02*
Y382160D01*
X491250Y355600D02*
Y368380D01*
Y355600D02*
X505250Y341600D01*
X532130D01*
X556260D01*
X560260Y343100D02*
Y345600D01*
X558760Y341600D02*
X560260Y343100D01*
X576640Y361980D02*
Y369600D01*
X560260Y345600D02*
X576640Y361980D01*
X577390Y370350D02*
X580390D01*
X576640Y369600D02*
X577390Y370350D01*
X455570Y54610D02*
Y67170D01*
Y12840D02*
Y25400D01*
X484663Y12840D02*
Y25400D01*
X144663Y12840D02*
Y25400D01*
X115570Y12840D02*
Y25400D01*
X144663Y55532D02*
Y68092D01*
X115570Y54610D02*
Y67170D01*
X195689Y108540D02*
Y123096D01*
X195558Y108408D02*
X195689Y108540D01*
X116612Y172684D02*
Y186250D01*
X140994Y172816D02*
Y186250D01*
X170180Y181750D02*
Y194310D01*
X184150Y209550D02*
X195558D01*
D62*
X149448Y437000D02*
X152044Y434405D01*
Y433042D02*
X152912Y432173D01*
Y411492D02*
X171450Y392955D01*
X152044Y433042D02*
Y434405D01*
X152912Y411492D02*
Y432173D01*
X159262Y414123D02*
X177800Y395585D01*
X159262Y432370D02*
X163951Y437059D01*
X159262Y414123D02*
Y432370D01*
X171450Y344989D02*
Y392955D01*
X177800Y344989D02*
Y395585D01*
D63*
X181238Y475732D02*
X181258Y475713D01*
X181238Y475732D02*
Y486307D01*
X181219Y486327D02*
X181238Y486307D01*
X119019Y403656D02*
Y462582D01*
X132507Y476070D01*
X132971Y476318D02*
Y486079D01*
X133219Y486327D01*
X73570Y314960D02*
Y358206D01*
X119019Y403656D01*
D64*
X154450Y234950D02*
X214733D01*
X223520Y211050D02*
Y226163D01*
X141750Y247650D02*
X154450Y234950D01*
X236454Y167524D02*
X245229Y158750D01*
X223558Y133917D02*
Y148628D01*
X214733Y234950D02*
X223520Y226163D01*
X223558Y108408D02*
Y133917D01*
X580390Y340350D02*
Y340850D01*
X585822Y176882D02*
Y334918D01*
X580390Y340350D02*
X585822Y334918D01*
X549747Y140807D02*
X585822Y176882D01*
X497074Y140807D02*
X549747D01*
X223615Y209607D02*
X241693D01*
X223558Y209550D02*
X223615Y209607D01*
X223558Y184270D02*
Y209550D01*
Y184270D02*
X224209Y183619D01*
X223558Y209550D02*
X223558Y209550D01*
X224209Y183619D02*
X230057D01*
X224820Y179159D02*
X236454Y167524D01*
X223558Y148628D02*
X233680Y158750D01*
X170180D02*
X233680D01*
X30570Y298360D02*
X69350Y259580D01*
X30570Y298360D02*
Y314960D01*
X69350Y259580D02*
X78050D01*
X78550Y259080D01*
Y179070D02*
Y259080D01*
Y100330D02*
Y130618D01*
X92550Y144618D01*
X78550Y158618D02*
Y179070D01*
Y158618D02*
X92550Y144618D01*
X116546D01*
X116612Y144684D01*
X140994D01*
X141060Y144750D01*
X141560D02*
X148060Y138250D01*
X167680D01*
X170180Y135750D01*
Y80887D02*
Y135750D01*
Y80887D02*
X188058D01*
X249393D02*
X258756D01*
X231058D02*
X249393D01*
X258756D02*
X300000Y39643D01*
X274770Y140780D02*
X339090D01*
X339103Y140767D01*
X417858D01*
X417871Y140753D01*
X417898Y140780D01*
X497047D01*
X497074Y140807D01*
D65*
X426720Y295910D02*
D03*
D66*
X245229Y158750D02*
D03*
D67*
X269240Y106680D02*
D03*
X249393Y80887D02*
D03*
X224340Y309809D02*
D03*
X279400Y274530D02*
D03*
X224340Y370610D02*
D03*
X280670Y397510D02*
D03*
X170180Y80887D02*
D03*
X241693Y209607D02*
D03*
X433423Y164409D02*
D03*
X203835Y271826D02*
D03*
D68*
X114019Y533827D02*
D03*
X200419D02*
D03*
D69*
X114019Y492027D02*
D03*
X200419D02*
D03*
D70*
X186119Y497027D02*
D03*
X128319D02*
D03*
D71*
X268283Y508476D02*
D03*
X219330D02*
D03*
X317243D02*
D03*
X366325Y508427D02*
D03*
M02*
