G04*
G04 #@! TF.GenerationSoftware,Altium Limited,Altium Designer,25.2.1 (25)*
G04*
G04 Layer_Color=8388736*
%FSLAX44Y44*%
%MOMM*%
G71*
G04*
G04 #@! TF.SameCoordinates,0CB7DE92-67F7-45F5-A009-4FBA8635F986*
G04*
G04*
G04 #@! TF.FilePolarity,Negative*
G04*
G01*
G75*
%ADD14R,0.3870X2.1772*%
G04:AMPARAMS|DCode=15|XSize=2.1772mm|YSize=0.387mm|CornerRadius=0.1935mm|HoleSize=0mm|Usage=FLASHONLY|Rotation=90.000|XOffset=0mm|YOffset=0mm|HoleType=Round|Shape=RoundedRectangle|*
%AMROUNDEDRECTD15*
21,1,2.1772,0.0000,0,0,90.0*
21,1,1.7902,0.3870,0,0,90.0*
1,1,0.3870,0.0000,0.8951*
1,1,0.3870,0.0000,-0.8951*
1,1,0.3870,0.0000,-0.8951*
1,1,0.3870,0.0000,0.8951*
%
%ADD15ROUNDEDRECTD15*%
G04:AMPARAMS|DCode=33|XSize=3.35mm|YSize=2.15mm|CornerRadius=0.1013mm|HoleSize=0mm|Usage=FLASHONLY|Rotation=90.000|XOffset=0mm|YOffset=0mm|HoleType=Round|Shape=RoundedRectangle|*
%AMROUNDEDRECTD33*
21,1,3.3500,1.9475,0,0,90.0*
21,1,3.1475,2.1500,0,0,90.0*
1,1,0.2025,0.9738,1.5738*
1,1,0.2025,0.9738,-1.5738*
1,1,0.2025,-0.9738,-1.5738*
1,1,0.2025,-0.9738,1.5738*
%
%ADD33ROUNDEDRECTD33*%
G04:AMPARAMS|DCode=34|XSize=1.1mm|YSize=2.15mm|CornerRadius=0.1mm|HoleSize=0mm|Usage=FLASHONLY|Rotation=90.000|XOffset=0mm|YOffset=0mm|HoleType=Round|Shape=RoundedRectangle|*
%AMROUNDEDRECTD34*
21,1,1.1000,1.9500,0,0,90.0*
21,1,0.9000,2.1500,0,0,90.0*
1,1,0.2000,0.9750,0.4500*
1,1,0.2000,0.9750,-0.4500*
1,1,0.2000,-0.9750,-0.4500*
1,1,0.2000,-0.9750,0.4500*
%
%ADD34ROUNDEDRECTD34*%
%ADD35R,1.0000X1.6000*%
%ADD36R,1.6000X1.0000*%
%ADD37R,1.0000X1.0000*%
%ADD38R,1.0000X1.0000*%
%ADD39R,1.8500X1.2500*%
%ADD40R,1.2500X1.8500*%
%ADD41R,1.0500X0.7000*%
%ADD42R,0.7000X1.2400*%
%ADD43R,0.4000X1.2400*%
%ADD44R,1.2000X2.0500*%
%ADD45R,1.9000X1.4000*%
%ADD46R,1.4000X1.9000*%
%ADD47R,1.7000X3.4000*%
%ADD48R,3.4000X1.7000*%
%ADD49R,4.1000X4.1000*%
%ADD50C,1.4000*%
%ADD51O,1.1000X1.9000*%
%ADD52O,1.1000X2.2000*%
%ADD53C,0.7500*%
%ADD54R,1.5000X1.5000*%
%ADD55C,1.5000*%
%ADD56C,0.8500*%
D14*
X120650Y297724D02*
D03*
D15*
X127000D02*
D03*
X133350D02*
D03*
X139700D02*
D03*
X146050D02*
D03*
X152400D02*
D03*
X158750D02*
D03*
X165100D02*
D03*
X171450D02*
D03*
X177800D02*
D03*
Y344989D02*
D03*
X171450D02*
D03*
X165100D02*
D03*
X158750D02*
D03*
X152400D02*
D03*
X146050D02*
D03*
X139700D02*
D03*
X133350D02*
D03*
X127000D02*
D03*
X120650D02*
D03*
D33*
X233680Y158750D02*
D03*
D34*
X170180Y135750D02*
D03*
Y158750D02*
D03*
Y181750D02*
D03*
D35*
X503950Y193380D02*
D03*
X491250D02*
D03*
X478550D02*
D03*
X465850D02*
D03*
X453150D02*
D03*
X440450D02*
D03*
X427750D02*
D03*
X415050D02*
D03*
X402350D02*
D03*
X389650D02*
D03*
X376950D02*
D03*
X364250D02*
D03*
X351550D02*
D03*
X338850D02*
D03*
Y368380D02*
D03*
X351550D02*
D03*
X364250D02*
D03*
X376950D02*
D03*
X389650D02*
D03*
X402350D02*
D03*
X415050D02*
D03*
X427750D02*
D03*
X440450D02*
D03*
X453150D02*
D03*
X465850D02*
D03*
X478550D02*
D03*
X491250D02*
D03*
X503950D02*
D03*
D36*
X326350Y211030D02*
D03*
Y223730D02*
D03*
Y236430D02*
D03*
Y249130D02*
D03*
Y261830D02*
D03*
Y274530D02*
D03*
Y287230D02*
D03*
Y299930D02*
D03*
Y312630D02*
D03*
Y325330D02*
D03*
Y338030D02*
D03*
Y350730D02*
D03*
D37*
X440750Y281880D02*
D03*
Y295880D02*
D03*
Y309880D02*
D03*
X412750Y281880D02*
D03*
Y295880D02*
D03*
Y309880D02*
D03*
X426750Y281880D02*
D03*
Y309880D02*
D03*
Y295880D02*
D03*
X239340Y326390D02*
D03*
X224340D02*
D03*
X239340Y346130D02*
D03*
X224340D02*
D03*
X565505Y324454D02*
D03*
X550505D02*
D03*
X229730Y478790D02*
D03*
X244730D02*
D03*
X278683D02*
D03*
X293683D02*
D03*
X327643D02*
D03*
X342643D02*
D03*
X376725D02*
D03*
X391725D02*
D03*
X466287Y169801D02*
D03*
X451287D02*
D03*
D38*
X203835Y290996D02*
D03*
Y305996D02*
D03*
X279400Y293139D02*
D03*
Y308138D02*
D03*
X280670Y379610D02*
D03*
Y364610D02*
D03*
X163951Y437059D02*
D03*
Y452059D02*
D03*
X149448Y437000D02*
D03*
Y452000D02*
D03*
X203817Y320288D02*
D03*
Y335288D02*
D03*
X178219Y437000D02*
D03*
Y452000D02*
D03*
X135181Y436941D02*
D03*
Y451941D02*
D03*
D39*
X580390Y340850D02*
D03*
Y370350D02*
D03*
D40*
X112250Y247650D02*
D03*
X141750D02*
D03*
D41*
X264375Y300638D02*
D03*
X239875Y291138D02*
D03*
Y310138D02*
D03*
X264980Y372110D02*
D03*
X240480Y362610D02*
D03*
Y381610D02*
D03*
D42*
X125219Y486327D02*
D03*
X133219D02*
D03*
X181219D02*
D03*
X189219D02*
D03*
D43*
X174719D02*
D03*
X139719D02*
D03*
X169719D02*
D03*
X144719D02*
D03*
X164719D02*
D03*
X149719D02*
D03*
X159719D02*
D03*
X154719D02*
D03*
D44*
X188058Y80887D02*
D03*
X231058D02*
D03*
X30570Y314960D02*
D03*
X73570D02*
D03*
D45*
X532130Y294610D02*
D03*
Y322610D02*
D03*
X141060Y172750D02*
D03*
Y144750D02*
D03*
X116546Y172618D02*
D03*
Y144618D02*
D03*
X532130Y369600D02*
D03*
Y341600D02*
D03*
X556260Y369600D02*
D03*
Y341600D02*
D03*
D46*
X195558Y209550D02*
D03*
X223558D02*
D03*
X195558Y108408D02*
D03*
X223558D02*
D03*
X130145Y372156D02*
D03*
X158145D02*
D03*
X113000Y270510D02*
D03*
X141000D02*
D03*
D47*
X497074Y85307D02*
D03*
Y140807D02*
D03*
X339090Y85280D02*
D03*
Y140780D02*
D03*
X417871Y85253D02*
D03*
Y140753D02*
D03*
D48*
X23050Y100330D02*
D03*
X78550D02*
D03*
X23050Y179070D02*
D03*
X78550D02*
D03*
X23050Y259080D02*
D03*
X78550D02*
D03*
D49*
X130000Y40000D02*
D03*
X470000D02*
D03*
X300000Y39643D02*
D03*
D50*
X269240Y106680D02*
D03*
X249393Y80887D02*
D03*
X224340Y309809D02*
D03*
X279400Y274530D02*
D03*
X224340Y370610D02*
D03*
X280670Y397510D02*
D03*
X170180Y80887D02*
D03*
X241693Y209607D02*
D03*
X433423Y164409D02*
D03*
X203835Y271826D02*
D03*
D51*
X114019Y533827D02*
D03*
X200419D02*
D03*
D52*
X114019Y492027D02*
D03*
X200419D02*
D03*
D53*
X186119Y497027D02*
D03*
X128319D02*
D03*
D54*
X268283Y508476D02*
D03*
X219330D02*
D03*
X317243D02*
D03*
X366325Y508427D02*
D03*
D55*
X293683Y508476D02*
D03*
X244730D02*
D03*
X342643D02*
D03*
X391725Y508427D02*
D03*
D56*
X403901Y85253D02*
D03*
X431841D02*
D03*
X23050Y165100D02*
D03*
Y193040D02*
D03*
X483104Y85307D02*
D03*
X511044D02*
D03*
X325120Y85280D02*
D03*
X353060D02*
D03*
X23050Y273050D02*
D03*
Y245110D02*
D03*
Y86360D02*
D03*
Y114300D02*
D03*
M02*
